<svg width="428" height="926" viewBox="0 0 428 926" fill="none" xmlns="http://www.w3.org/2000/svg">
<path d="M428 0H0V926H428V0Z" fill="#111111"/>
<path d="M327.62 115.8L346.2 134.38L327.62 152.96L309.04 134.38L327.62 115.8ZM327.62 113.01L306.25 134.38L327.62 155.75L348.99 134.38L327.62 113.01Z" fill="#032014"/>
<path d="M327.63 47.8L380.2 100.37L361.64 118.94L329.03 86.27L327.63 84.87L326.23 86.27L293.62 118.94L275.06 100.37L306.62 68.81L308.02 67.41L327.63 47.8ZM327.63 45L306.62 66.01L272.26 100.37L293.62 121.73L327.63 87.67L361.64 121.73L383 100.37L327.63 45Z" fill="#032014"/>
<path d="M1.72055 531.8L83.9205 614L1.72055 696.2V671.58L19.8505 653.45L20.8505 652.45L19.8505 651.45L1.72055 633.34V608.72L32.1605 639.16L33.1605 640.16L34.1605 639.16L58.3105 615L59.3105 614L58.3105 613L1.72055 556.42V531.8ZM0.310547 528.4V557L57.3105 614L33.1505 638.16L0.310547 605.32V633.92L18.8505 652.46L0.310547 671V699.6L85.9106 614L0.310547 528.4Z" fill="#032014"/>
</svg>
