<svg width="328" height="301" viewBox="0 0 328 301" fill="none" xmlns="http://www.w3.org/2000/svg">
<g opacity="0.15">
<path opacity="0.25" d="M66.8 140.67C116.05 191.45 180.77 226.7 240.76 169.8C271.69 140.49 312.56 61.3301 272.22 25.1001C216.64 -24.8199 184.72 56.8601 143.19 67.93C114.7 75.5001 90.7499 31.7501 56.65 60.9801C29.6999 84.0801 46.32 119.56 66.8 140.67Z" fill="#08B780"/>
<path opacity="0.9" d="M66.8 140.67C116.05 191.45 180.77 226.7 240.76 169.8C271.69 140.49 312.56 61.3301 272.22 25.1001C216.64 -24.8199 184.72 56.8601 143.19 67.93C114.7 75.5001 90.7499 31.7501 56.65 60.9801C29.6999 84.0801 46.32 119.56 66.8 140.67Z" fill="white"/>
</g>
<g opacity="0.25">
<path opacity="0.25" d="M164 300.36C254.089 300.36 327.12 296.098 327.12 290.84C327.12 285.582 254.089 281.32 164 281.32C73.9112 281.32 0.879883 285.582 0.879883 290.84C0.879883 296.098 73.9112 300.36 164 300.36Z" fill="#F5F5F5"/>
</g>
<path d="M247.5 78.15L239.15 74.78C239.15 74.78 228.14 94.86 224.98 95.88C220.69 97.26 211.81 101.1 206.54 101.77C205.82 102.61 204.66 105.23 204.76 106.18C211.84 108.54 227.38 105.41 230.71 102.93C238.3 97.33 247.5 78.15 247.5 78.15Z" fill="#E58A7B"/>
<path d="M250.07 73.58C251.63 79.33 243.2 90.89 243.2 90.89L232.15 84.7C232.15 84.7 234.22 79.95 236.74 75.11C240.79 67.29 248.29 67.03 250.07 73.58Z" fill="#08B780"/>
<path opacity="0.2" d="M250.07 73.58C251.63 79.33 243.2 90.89 243.2 90.89L232.15 84.7C232.15 84.7 234.22 79.95 236.74 75.11C240.79 67.29 248.29 67.03 250.07 73.58Z" fill="black"/>
<path opacity="0.2" d="M236.53 87.17L240.88 89.61L241.65 76.26C239.11 78.2 237.33 84.06 236.53 87.17Z" fill="black"/>
<path d="M242.8 69.26C242.8 69.26 234.2 88.39 239.22 124.01H273.1C273.64 118.81 271.85 93.44 278.31 68.94C274.59 68.21 270.83 67.73 267.05 67.5C262.26 67.22 257.45 67.22 252.66 67.5C249.32 67.84 246.03 68.43 242.8 69.26Z" fill="#08B780"/>
<path opacity="0.2" d="M242.8 69.26C242.8 69.26 234.2 88.39 239.22 124.01H273.1C273.64 118.81 271.85 93.44 278.31 68.94C274.59 68.21 270.83 67.73 267.05 67.5C262.26 67.22 257.45 67.22 252.66 67.5C249.32 67.84 246.03 68.43 242.8 69.26Z" fill="black"/>
<path d="M234.94 291.6C234.89 292.51 247.74 293.24 263.63 293.24C279.52 293.24 292.46 292.51 292.51 291.6C292.56 290.69 279.72 289.97 263.82 289.97C247.92 289.97 235 290.7 234.94 291.6Z" fill="#E8ECF1"/>
<path d="M257.569 267.744L251.563 270.069L256.74 283.442L262.746 281.117L257.569 267.744Z" fill="#E58A7B"/>
<path d="M284.35 285.13H278.01L275.69 270.47H282.03L284.35 285.13Z" fill="#E58A7B"/>
<path d="M277.58 284.4H284.7C284.96 284.4 285.17 284.59 285.21 284.84L286.13 290.47C286.2 291.01 285.82 291.51 285.28 291.59C285.23 291.6 285.18 291.6 285.14 291.6C282.66 291.56 281.46 291.41 278.33 291.41C276.4 291.41 272.44 291.61 269.77 291.61C267.1 291.61 266.92 288.99 268.02 288.74C272.97 287.67 274.89 286.22 276.53 284.8C276.81 284.54 277.19 284.4 277.58 284.4Z" fill="#263238"/>
<path d="M256.54 282.23L263.27 280.26C263.52 280.19 263.78 280.3 263.9 280.53L266.42 285.58C266.64 286.07 266.43 286.64 265.94 286.86C265.89 286.88 265.84 286.9 265.79 286.92C263.34 287.59 261.7 288.01 258.64 288.9C256.53 289.51 254.37 290.52 252.29 291.18C250.84 291.64 247.44 291.66 245.69 291.66C243.09 291.66 242.51 288.92 243.63 288.79C246.45 288.48 246.83 288.62 248.38 287.84C250.93 286.73 253.23 285.13 255.18 283.15C255.55 282.72 256.02 282.41 256.54 282.23Z" fill="#263238"/>
<path d="M207.6 101.74L200.63 98.8201L197.76 106.54C200.62 106.97 203.52 106.97 206.37 106.54L207.6 101.74Z" fill="#E58A7B"/>
<path d="M195.46 98.6201L195.27 103.75L197.77 106.53L200.64 98.8101L195.46 98.6201Z" fill="#E58A7B"/>
<path d="M258.403 268.857L252.376 271.184L255.046 278.096L261.072 275.769L258.403 268.857Z" fill="#CF6F64"/>
<path d="M282.03 270.47H275.69L276.89 278.03H283.23L282.03 270.47Z" fill="#CF6F64"/>
<path opacity="0.2" d="M238.14 114.38C238.27 115.9 238.41 117.46 238.59 119.06L263.78 110.88C267.71 109.71 271.13 107.24 273.47 103.87C273.57 101.62 273.7 99.2602 273.89 96.7902C273.97 95.6002 274.08 94.3701 274.18 93.1201C274.28 91.8701 274.44 90.5002 274.6 89.1702L238.14 114.38Z" fill="black"/>
<path d="M246.36 86.78L245.52 86.6799C246.02 82.4699 249.15 79.1599 252.46 79.2399V80.0799C249.57 80.0299 246.81 83.02 246.36 86.78Z" fill="white"/>
<path d="M250.85 94.55H250.71V93.71C253.6 93.82 256.32 90.8 256.77 87.04L257.61 87.14C257.16 91.25 254.12 94.55 250.85 94.55Z" fill="white"/>
<path d="M266.57 51.29C265.38 55.93 263.99 64.41 267.04 67.5C267.04 67.5 264.9 72.2 256.3 72.2C248.43 72.2 252.65 67.5 252.65 67.5C257.88 66.27 257.98 62.45 257.29 58.83L266.57 51.29Z" fill="#E58A7B"/>
<path d="M262.79 54.3701L257.3 58.8401C257.47 59.6701 257.57 60.5201 257.59 61.3601C259.2 62.9601 262.42 58.9101 262.75 56.8401C262.91 56.0301 262.92 55.1901 262.79 54.3701Z" fill="#CF6F64"/>
<path d="M247.84 51.2301C248.61 52.5701 249.91 53.5301 251.42 53.8701C253.44 54.3201 254.45 52.4601 253.89 50.5901C253.39 48.9101 251.74 46.6401 249.68 47.0301C248.16 47.3401 247.18 48.8301 247.49 50.3501C247.57 50.6601 247.68 50.9601 247.84 51.2301Z" fill="#CF6F64"/>
<path d="M251.18 36.4002C248.03 37.8402 246.92 50.3402 250.88 52.1902C254.84 54.0402 257.14 33.6602 251.18 36.4002Z" fill="#263238"/>
<path d="M267.53 44.32C266.77 50.6 266.69 54.29 263.32 57.5C260.2 60.7 255.07 60.75 251.88 57.63C250.66 56.44 249.85 54.89 249.56 53.21C248.54 47.57 249.95 38.26 256.24 35.76C260.33 33.95 265.12 35.81 266.92 39.9C267.53 41.29 267.74 42.82 267.53 44.32Z" fill="#E58A7B"/>
<path d="M257.19 39.6501C261.85 38.4601 265.27 37.6601 264.05 41.5301C262.43 46.7101 260.47 51.7301 263.09 51.9501C264.69 52.0901 271.76 49.1001 270.86 46.0601C270.08 43.4201 273.38 42.69 273.97 41.36C276.15 36.51 269.91 37.1501 271.03 34.2101C272.14 31.2701 265.98 26.5201 262.62 28.8801C257.14 32.7001 247.75 32.6401 252.68 26.3601C256.22 21.8801 249.9 22.7901 249.9 22.7901C249.9 22.7901 253.72 25.0501 247.29 28.5501C240.49 32.2901 246.73 42.3301 257.19 39.6501Z" fill="#263238"/>
<path d="M270 51.2301C269.08 52.5601 267.7 53.5001 266.12 53.8701C264.04 54.3201 263.24 52.4601 264.03 50.5901C264.73 48.9101 266.65 46.6401 268.63 47.0301C270.62 47.4201 271.07 49.5801 270 51.2301Z" fill="#E58A7B"/>
<path d="M239.21 124.01C239.21 124.01 233.52 174.91 233.08 194.23C232.63 214.32 252.35 277.01 252.35 277.01L262.45 272.8C262.45 272.8 250.67 215.52 252.35 195.8C254.13 174.29 261.5 124.05 261.5 124.05L239.21 124.01Z" fill="#08B780"/>
<path opacity="0.2" d="M253.35 137.99C248.82 147.4 251.87 166 254.33 177.02C255.26 169.24 256.37 160.79 257.43 152.98C257.32 140.96 256.38 131.68 253.35 137.99Z" fill="black"/>
<path d="M262 269.46C262.05 269.46 263.19 272.67 263.19 272.67L251.55 277.57L249.72 274.15L262 269.46Z" fill="#08B780"/>
<path d="M251.23 124.01C251.23 124.01 255.58 172.42 258.46 190.55C261.62 210.41 274.02 276.56 274.02 276.56H285.62C285.62 276.56 278.67 212.02 277.36 192.35C275.93 171.01 273.09 124.01 273.09 124.01H251.23Z" fill="#08B780"/>
<path d="M285.8 273.55C285.85 273.55 286.19 276.79 286.19 276.79H273.44L272.53 273.07L285.8 273.55Z" fill="#08B780"/>
<path opacity="0.2" d="M281.36 269.71C281.31 269.71 281.26 269.67 281.25 269.62C281.18 269.03 274.92 210.73 273.74 193.06C272.46 173.9 269.89 131.38 269.86 130.96C269.86 130.9 269.9 130.86 269.95 130.85H269.96C270.02 130.85 270.06 130.89 270.07 130.95C270.07 131.38 272.67 173.86 273.95 193.05C275.13 210.72 281.4 268.98 281.45 269.61C281.46 269.66 281.42 269.72 281.37 269.73H281.36V269.71Z" fill="black"/>
<path d="M257.91 46.0701C257.91 46.5801 257.59 47.0001 257.25 47.0001C256.91 47.0001 256.67 46.5901 256.7 46.0701C256.73 45.5601 257.02 45.1401 257.36 45.1401C257.7 45.1401 257.94 45.5601 257.91 46.0701Z" fill="#263238"/>
<path d="M252.13 46.0701C252.13 46.5801 251.8 47.0001 251.47 47.0001C251.14 47.0001 250.89 46.5901 250.91 46.0701C250.94 45.5601 251.24 45.1401 251.57 45.1401C251.9 45.1401 252.17 45.5601 252.13 46.0701Z" fill="#263238"/>
<path d="M253.95 46.3301C253.25 47.9001 252.34 49.3701 251.26 50.7001C252.1 51.5401 253.67 51.1501 253.67 51.1501L253.95 46.3301Z" fill="#DF5753"/>
<path d="M254.1 53.2901C254.02 53.2901 253.96 53.23 253.96 53.15V53.1401C253.96 53.0601 254.03 52.99 254.12 52.99C255.42 53 256.66 52.4201 257.49 51.4101C257.55 51.3601 257.64 51.3601 257.7 51.4101C257.76 51.4701 257.76 51.5601 257.7 51.6201C256.81 52.6901 255.49 53.3101 254.1 53.2901Z" fill="#263238"/>
<path d="M258.93 44.52C258.85 44.56 258.75 44.56 258.67 44.52C258.03 44.11 257.24 44.02 256.52 44.29C256.38 44.36 256.21 44.3 256.14 44.16C256.14 44.16 256.14 44.16 256.14 44.15C256.08 43.99 256.15 43.82 256.3 43.75C257.19 43.39 258.21 43.48 259.02 44C259.15 44.09 259.19 44.27 259.1 44.41C259.05 44.46 258.99 44.5 258.93 44.52Z" fill="#263238"/>
<path d="M249.91 42.8401C249.87 42.8301 249.82 42.8101 249.79 42.7701C249.67 42.6601 249.67 42.4701 249.79 42.3501C250.44 41.6201 251.4 41.2301 252.38 41.3101C252.54 41.3301 252.64 41.4801 252.62 41.6401C252.62 41.6501 252.62 41.6501 252.62 41.6601C252.58 41.8201 252.43 41.9301 252.27 41.9101C251.5 41.8601 250.74 42.1701 250.23 42.7501C250.14 42.8301 250.02 42.8701 249.91 42.8401Z" fill="#263238"/>
<path d="M281.56 77.2201L272.81 74.8901C272.81 74.8901 264.23 96.0201 261.19 97.3901C257.07 99.2701 246.63 105.8 242.18 108.89C241.94 109.94 242.13 112.73 242.68 113.49C250.25 112.11 264.75 106.53 267.78 103.7C274.69 97.2301 281.56 77.2201 281.56 77.2201Z" fill="#E58A7B"/>
<path d="M275.45 285.51C275.02 285.54 274.6 285.43 274.25 285.18C274.03 284.98 273.93 284.68 273.99 284.39C274 284.21 274.11 284.05 274.28 283.97C274.99 283.61 276.96 284.86 277.19 285C277.24 285.03 277.27 285.09 277.25 285.15C277.24 285.21 277.19 285.26 277.13 285.28C276.57 285.42 276.01 285.49 275.45 285.51ZM274.61 284.2C274.55 284.19 274.48 284.19 274.42 284.2C274.35 284.23 274.31 284.3 274.32 284.38C274.27 284.58 274.34 284.79 274.49 284.93C274.82 285.22 275.64 285.26 276.73 285.05C276.08 284.62 275.36 284.34 274.59 284.21H274.61V284.2Z" fill="#08B780"/>
<path d="M277.08 285.28C277.06 285.29 277.03 285.29 277.01 285.28C276.38 284.93 275.19 283.54 275.37 282.83C275.42 282.6 275.63 282.44 275.87 282.43C276.1 282.4 276.33 282.47 276.5 282.62C277.2 283.22 277.24 285.05 277.24 285.14C277.25 285.2 277.22 285.25 277.16 285.27C277.14 285.3 277.11 285.29 277.08 285.28ZM275.95 282.72H275.89C275.7 282.72 275.67 282.83 275.66 282.87C275.56 283.28 276.31 284.33 276.93 284.83C276.93 284.12 276.71 283.43 276.3 282.84C276.21 282.76 276.08 282.71 275.95 282.72Z" fill="#08B780"/>
<path d="M253.11 284.46C252.6 284.64 252.03 284.64 251.52 284.46C251.28 284.33 251.13 284.09 251.11 283.82C251.09 283.65 251.16 283.48 251.29 283.37C251.96 282.76 254.71 283.37 255.03 283.49C255.09 283.51 255.13 283.56 255.13 283.62C255.13 283.68 255.1 283.74 255.04 283.77C254.41 284.06 253.77 284.28 253.11 284.46ZM251.74 283.46C251.64 283.48 251.55 283.52 251.48 283.59C251.43 283.63 251.4 283.7 251.41 283.77C251.42 283.95 251.52 284.11 251.68 284.2C252.13 284.44 253.16 284.25 254.5 283.69C253.6 283.45 252.66 283.37 251.74 283.46Z" fill="#08B780"/>
<path d="M255 283.78H254.93C254.09 283.63 252.41 282.66 252.36 281.94C252.36 281.77 252.44 281.54 252.84 281.4C253.12 281.3 253.42 281.32 253.68 281.45C254.59 281.9 255.07 283.51 255.09 283.59C255.1 283.64 255.09 283.7 255.05 283.73C255.04 283.75 255.02 283.76 255 283.78ZM253.01 281.65H252.93C252.67 281.74 252.67 281.85 252.67 281.89C252.67 282.33 253.89 283.13 254.74 283.4C254.54 282.72 254.13 282.13 253.56 281.72C253.39 281.62 253.19 281.6 253.01 281.65Z" fill="#08B780"/>
<path d="M242.9 108.39L234.13 112.43L233.11 114.95L236.35 117.13C236.35 117.13 242.41 116.47 244.13 112.58L242.9 108.39Z" fill="#E58A7B"/>
<path d="M243.27 113.63C243.07 111.94 242.52 110.32 241.64 108.87L243.03 107.83C244.07 109.5 244.74 111.38 244.98 113.34L243.27 113.63Z" fill="#263238"/>
<path d="M244.76 109.58C245.26 110.36 245.03 111.4 244.24 111.9C243.46 112.4 242.42 112.17 241.92 111.38C241.42 110.6 241.65 109.56 242.44 109.06C242.53 109.01 242.62 108.96 242.71 108.92C243.46 108.55 244.38 108.84 244.76 109.58Z" fill="#263238"/>
<path d="M228.19 115.69L229.36 116.87L237.24 113.5L234.12 112.43L228.19 115.69Z" fill="#E58A7B"/>
<path opacity="0.2" d="M262 269.46C262.05 269.46 263.19 272.67 263.19 272.67L251.55 277.57L249.72 274.15L262 269.46Z" fill="black"/>
<path opacity="0.2" d="M285.8 273.55C285.85 273.55 286.19 276.79 286.19 276.79H273.44L272.53 273.07L285.8 273.55Z" fill="black"/>
<path d="M283.84 74.8001C286.15 82.2601 277.11 92.4702 277.11 92.4702L264.62 87.3702C266.1 83.0602 267.81 78.8202 269.74 74.6902C273.56 66.4202 281.5 67.2701 283.84 74.8001Z" fill="#08B780"/>
<path opacity="0.2" d="M283.84 74.8001C286.15 82.2601 277.11 92.4702 277.11 92.4702L264.62 87.3702C266.1 83.0602 267.81 78.8202 269.74 74.6902C273.56 66.4202 281.5 67.2701 283.84 74.8001Z" fill="black"/>
<path d="M159.7 0.0300293H154.32V0.900024H159.7V0.0300293Z" fill="#08B780"/>
<path d="M229.28 34.3267L228.63 48.7622L229.499 48.8014L230.149 34.3658L229.28 34.3267Z" fill="#08B780"/>
<path d="M227.61 3.91992H128.34L119.1 210.64H218.37L227.61 3.91992Z" fill="#08B780"/>
<path opacity="0.56" d="M224.65 6.76001H125.38L116.14 213.48H215.41L224.65 6.76001Z" fill="#FAFAFA"/>
<path opacity="0.07" d="M221.69 9.6001H122.41L113.17 216.32H212.44L221.69 9.6001Z" fill="#08B780"/>
<path d="M210.39 99.76H125.65L124.95 115.57H209.68L210.39 99.76Z" fill="white"/>
<path d="M172.25 88.21H126.17L125.86 95.29H171.94L172.25 88.21Z" fill="#08B780"/>
<path d="M208.48 142.45H123.74L123.04 158.26H207.77L208.48 142.45Z" fill="white"/>
<path opacity="0.47" d="M192.94 179.62H135.96L135.11 198.58H192.09L192.94 179.62Z" fill="#08B780"/>
<path d="M189.13 201.52H132.15C132.13 201.53 132.1 201.53 132.07 201.52C132.06 201.5 132.06 201.47 132.07 201.44L132.91 182.48C132.91 182.43 132.95 182.39 133 182.39H133.01H190C190.02 182.38 190.05 182.38 190.07 182.39C190.08 182.41 190.08 182.44 190.07 182.46L189.25 201.47C189.22 201.5 189.17 201.53 189.13 201.52ZM132.25 201.32H189.03L189.87 182.56H133.09L132.25 201.32Z" fill="white"/>
<path d="M162.3 130.9H124.26L123.95 137.99H161.98L162.3 130.9Z" fill="#08B780"/>
<path d="M191.86 48.6701C191.64 53.2701 190.01 57.7001 187.17 61.3301C182.92 66.9001 176.34 70.1801 169.33 70.2201C158.03 70.3101 148.81 61.2201 148.72 49.9201C148.72 49.5001 148.73 49.0801 148.75 48.6601C149.36 36.6501 159.23 27.2001 171.25 27.1101C182.54 27.0001 191.77 36.0701 191.87 47.3501C191.89 47.7901 191.88 48.2301 191.86 48.6701Z" fill="white"/>
<path d="M193.88 31.6199C193.83 32.8399 193.39 34.0199 192.63 34.9899C191.5 36.4699 189.75 37.3399 187.89 37.3499C186.08 37.3599 184.39 36.4799 183.36 34.9899C182.69 33.9999 182.36 32.8199 182.42 31.6199C182.59 28.4299 185.21 25.9299 188.4 25.8999C191.4 25.8699 193.86 28.2799 193.88 31.2799C193.89 31.3999 193.89 31.5099 193.88 31.6199Z" fill="#08B780"/>
<path d="M134.78 107.67C134.7 109.08 133.54 110.18 132.13 110.19C130.81 110.21 129.72 109.15 129.7 107.82C129.7 107.77 129.7 107.72 129.7 107.67C129.78 106.26 130.94 105.15 132.35 105.15C133.68 105.14 134.76 106.21 134.78 107.54C134.78 107.57 134.78 107.62 134.78 107.67Z" fill="#263238"/>
<path d="M146.12 107.67C146.04 109.08 144.88 110.18 143.47 110.19C142.15 110.2 141.06 109.14 141.05 107.81C141.05 107.76 141.05 107.71 141.05 107.66C141.13 106.25 142.28 105.15 143.69 105.14C145.01 105.12 146.1 106.18 146.12 107.51C146.13 107.56 146.13 107.61 146.12 107.67Z" fill="#263238"/>
<path d="M157.47 107.67C157.39 109.08 156.23 110.18 154.82 110.19C153.49 110.2 152.41 109.13 152.39 107.8C152.39 107.75 152.39 107.71 152.39 107.66C152.47 106.25 153.63 105.15 155.04 105.14C156.36 105.12 157.45 106.18 157.47 107.51C157.48 107.56 157.47 107.61 157.47 107.67Z" fill="#263238"/>
<path d="M132.87 150.35C132.79 151.76 131.63 152.86 130.22 152.87C128.89 152.88 127.81 151.81 127.79 150.48C127.79 150.43 127.79 150.39 127.79 150.34C127.87 148.93 129.03 147.83 130.44 147.82C131.77 147.81 132.85 148.88 132.87 150.21C132.88 150.26 132.87 150.31 132.87 150.35Z" fill="#263238"/>
<path d="M144.21 150.35C144.13 151.76 142.98 152.86 141.57 152.87C140.25 152.89 139.16 151.83 139.14 150.5C139.14 150.45 139.14 150.4 139.14 150.35C139.22 148.94 140.38 147.84 141.79 147.83C143.11 147.82 144.2 148.88 144.21 150.21C144.22 150.26 144.22 150.3 144.21 150.35Z" fill="#263238"/>
<path d="M155.59 150.35C155.51 151.76 154.35 152.86 152.94 152.87C151.61 152.88 150.52 151.8 150.51 150.47C150.51 150.43 150.51 150.39 150.51 150.35C150.59 148.94 151.75 147.84 153.16 147.83C154.48 147.81 155.57 148.87 155.59 150.2C155.59 150.25 155.59 150.3 155.59 150.35Z" fill="#263238"/>
<path d="M166.91 150.35C166.83 151.76 165.67 152.86 164.26 152.87C162.93 152.88 161.84 151.8 161.83 150.47C161.83 150.43 161.83 150.39 161.83 150.35C161.91 148.94 163.07 147.84 164.48 147.83C165.81 147.82 166.89 148.89 166.91 150.22C166.91 150.26 166.91 150.31 166.91 150.35Z" fill="#263238"/>
<path d="M178.3 150.35C178.22 151.76 177.06 152.86 175.65 152.87C174.33 152.89 173.24 151.83 173.22 150.5C173.22 150.45 173.22 150.4 173.22 150.35C173.3 148.94 174.46 147.84 175.87 147.83C177.2 147.82 178.28 148.89 178.3 150.22C178.31 150.26 178.3 150.31 178.3 150.35Z" fill="#263238"/>
<path d="M176.596 47.5456C180.119 44.1011 180.307 38.5814 177.017 35.217C173.727 31.8526 168.204 31.9175 164.682 35.362C161.16 38.8065 160.971 44.3263 164.261 47.6907C167.551 51.0551 173.074 50.9901 176.596 47.5456Z" fill="#08B780"/>
<path d="M187.17 61.3301C182.92 66.9001 176.34 70.1801 169.33 70.2201C162.53 70.2801 156.14 66.9401 152.3 61.3301C156.39 57.2601 162.86 54.6001 170.03 54.6001C177.2 54.6001 183.44 57.2601 187.17 61.3301Z" fill="#08B780"/>
<path opacity="0.1" d="M176.596 47.5456C180.119 44.1011 180.307 38.5814 177.017 35.217C173.727 31.8526 168.204 31.9175 164.682 35.362C161.16 38.8065 160.971 44.3263 164.261 47.6907C167.551 51.0551 173.074 50.9901 176.596 47.5456Z" fill="white"/>
<path opacity="0.1" d="M187.17 61.3301C182.92 66.9001 176.34 70.1801 169.33 70.2201C162.53 70.2801 156.14 66.9401 152.3 61.3301C156.39 57.2601 162.86 54.6001 170.03 54.6001C177.2 54.6001 183.44 57.2601 187.17 61.3301Z" fill="white"/>
<path d="M63.3897 119.39C62.5897 121.14 61.7497 123.07 61.0197 124.93C60.2897 126.8 59.5397 128.72 58.8897 130.64C57.5697 134.42 56.5597 138.3 55.8797 142.25L55.6897 143.49C55.6697 143.7 55.6897 143.92 55.7497 144.12C55.9497 144.82 56.2597 145.48 56.6797 146.07C57.7597 147.61 59.0097 149.02 60.4197 150.28C61.8997 151.65 63.4497 152.95 65.0597 154.16C66.6797 155.41 68.3697 156.62 70.0497 157.76L68.4797 160.71C64.4797 158.97 60.6897 156.79 57.1597 154.22C55.2797 152.85 53.5797 151.24 52.1097 149.44C51.2397 148.37 50.5597 147.15 50.0997 145.85C49.8297 145.04 49.6997 144.18 49.6997 143.33C49.6997 143.13 49.6997 142.83 49.6997 142.69V142.28L49.7797 141.44C50.2597 137.06 51.1797 132.73 52.5297 128.53C53.1897 126.46 53.8797 124.4 54.6797 122.39C55.4797 120.38 56.2997 118.41 57.3197 116.37L63.3897 119.39Z" fill="#E58A7B"/>
<path d="M68.8598 157.24L74.8098 154.23L73.2698 160.76C73.2698 160.76 69.1898 161.9 67.2998 159.92L68.8598 157.24Z" fill="#E58A7B"/>
<path d="M80.25 155.29L78.67 160.69L73.27 160.75L74.81 154.22L80.25 155.29Z" fill="#E58A7B"/>
<path d="M88.6401 87.8901C88.9601 89.0601 89.4001 90.1801 89.9601 91.2601C89.6301 91.6401 89.1101 91.8001 88.6201 91.6901L88.6401 87.8901Z" fill="#DF5753"/>
<path d="M88.4698 87.94C88.8178 87.94 89.0999 87.5057 89.0999 86.97C89.0999 86.4343 88.8178 86 88.4698 86C88.1219 86 87.8398 86.4343 87.8398 86.97C87.8398 87.5057 88.1219 87.94 88.4698 87.94Z" fill="#263238"/>
<path d="M88.2798 86.04L89.5598 85.68C89.5598 85.67 88.9398 86.67 88.2798 86.04Z" fill="#263238"/>
<path d="M72.21 94.0601C72.98 97.9701 73.74 105.15 71 107.76C71 107.76 72.08 111.73 79.35 111.73C87.35 111.73 83.17 107.76 83.17 107.76C78.8 106.72 78.91 103.48 79.68 100.43L72.21 94.0601Z" fill="#E58A7B"/>
<path d="M70.0898 85.1401C70.4898 91.6801 70.5298 94.4501 73.8298 97.8101C78.7998 102.86 86.7399 100.94 88.2999 94.4401C89.6999 88.5501 88.8099 78.8601 82.4099 76.2601C77.8499 74.3801 72.6298 76.5601 70.7498 81.1201C70.2098 82.4001 69.9898 83.7701 70.0898 85.1401Z" fill="#E58A7B"/>
<path d="M70.7301 77.79C67.4501 78.98 63.0701 78.09 64.7901 88.21C66.6101 98.93 63.8101 102.45 63.8101 102.45C63.8101 102.45 76.2501 105.1 88.9601 102.29C88.9601 102.29 85.0801 95.51 86.1701 90.51C87.5601 84.2 86.4601 81.87 86.4601 81.87C86.4601 81.87 75.3401 76.11 70.7301 77.79Z" fill="#263238"/>
<path d="M84.6099 88.5501C84.6099 89.7901 84.9699 91.0101 85.6399 92.0601C86.5299 93.4201 87.5799 92.9001 87.8399 91.4501C88.0799 90.1801 87.8999 87.9301 86.7599 87.0601C85.6199 86.1901 84.6299 87.0501 84.6099 88.5501Z" fill="#E58A7B"/>
<path d="M67.8801 78.8901C66.9401 76.2401 71.4301 72.1601 80.9401 73.8401C90.4501 75.5201 90.8601 83.4401 90.8601 83.4401L88.9401 81.1501L89.0201 83.5601L79.2501 85.4401L67.8801 78.8901Z" fill="#263238"/>
<path d="M68.69 108.21C68.57 107.41 69.11 106.66 69.91 106.53C72.87 106.04 79.6 105.05 82.98 105.52C85.5 105.87 86.16 107.34 86.27 108.54C86.34 109.36 85.73 110.07 84.91 110.14C84.84 110.15 84.78 110.15 84.71 110.14L70.09 109.48C69.38 109.45 68.8 108.92 68.69 108.21Z" fill="#08B780"/>
<path opacity="0.6" d="M68.69 108.21C68.57 107.41 69.11 106.66 69.91 106.53C72.87 106.04 79.6 105.05 82.98 105.52C85.5 105.87 86.16 107.34 86.27 108.54C86.34 109.36 85.73 110.07 84.91 110.14C84.84 110.15 84.78 110.15 84.71 110.14L70.09 109.48C69.38 109.45 68.8 108.92 68.69 108.21Z" fill="black"/>
<path d="M77.1401 255.19L82.5701 258.96L91.6501 246.65L86.2201 242.89L77.1401 255.19Z" fill="#E58A7B"/>
<path d="M64.4897 254.94L70.2197 258.21L78.2497 245.19L72.5297 241.93L64.4897 254.94Z" fill="#E58A7B"/>
<path d="M91.64 246.65L86.9601 252.99L81.54 249.23L86.2101 242.89L91.64 246.65Z" fill="#CF6F64"/>
<path d="M72.5199 241.93L78.2499 245.2L74.1199 251.91L68.3799 248.63L72.5199 241.93Z" fill="#CF6F64"/>
<path d="M81.7198 149.3C81.7198 149.3 102.9 175.99 98.9198 201.53C95.7098 222.15 77.1198 250.07 77.1198 250.07L68.3797 245.73C74.5397 233.38 79.7998 220.61 84.1098 207.5C86.7998 199.26 85.5598 190.23 80.7398 183.02C69.9998 167.35 52.8097 176.68 64.3797 149.3H81.7198Z" fill="#08B780"/>
<path opacity="0.6" d="M81.7198 149.3C81.7198 149.3 102.9 175.99 98.9198 201.53C95.7098 222.15 77.1198 250.07 77.1198 250.07L68.3797 245.73C74.5397 233.38 79.7998 220.61 84.1098 207.5C86.7998 199.26 85.5598 190.23 80.7398 183.02C69.9998 167.35 52.8097 176.68 64.3797 149.3H81.7198Z" fill="black"/>
<path opacity="0.4" d="M92.1098 166.45L89.0298 163.39C89.0298 163.63 94.9898 200.46 96.6698 210.81C97.6598 207.79 98.4098 204.69 98.9298 201.56C100.9 189.02 96.7898 176.22 92.1098 166.45Z" fill="black"/>
<path d="M91.1799 149.3C91.1799 149.3 116.69 182.85 117.41 202.97C118.01 219.8 89.6499 252.4 89.6499 252.4L81.4099 247.07C81.4099 247.07 98.0099 223.92 102.19 205C100.57 186.26 66.4199 149.31 66.4199 149.31H91.1799V149.3Z" fill="#08B780"/>
<path opacity="0.6" d="M91.1799 149.3C91.1799 149.3 116.69 182.85 117.41 202.97C118.01 219.8 89.6499 252.4 89.6499 252.4L81.4099 247.07C81.4099 247.07 98.0099 223.92 102.19 205C100.57 186.26 66.4199 149.31 66.4199 149.31H91.1799V149.3Z" fill="black"/>
<path d="M59.6198 109.26C56.8898 109.91 54.2798 119.82 54.2798 119.82L64.9398 126.94C64.9398 126.94 68.4898 119.1 67.2498 115.67C65.9498 112.09 63.0398 108.45 59.6198 109.26Z" fill="#08B780"/>
<path opacity="0.2" d="M61.7097 115.65L60.9697 124.29L64.9297 126.95C66.0197 124.49 66.8297 121.91 67.3397 119.26L61.7097 115.65Z" fill="black"/>
<path d="M94.3299 109.46C94.3299 109.46 97.4799 110.56 91.1799 149.3H64.3799C64.8299 138.36 64.8399 131.63 59.6299 109.27C63.3799 108.5 67.1899 108 71.0099 107.77C75.0599 107.48 79.1299 107.48 83.1799 107.77C88.4099 108.25 94.3299 109.46 94.3299 109.46Z" fill="#08B780"/>
<path d="M97.0597 115.65C97.6697 117.33 98.3097 119.14 98.9797 120.88C99.6497 122.62 100.29 124.41 100.97 126.18L103.03 131.46L103.55 132.78L103.82 133.44L103.95 133.77C103.95 133.83 103.95 133.83 103.95 133.82C103.8 133.6 103.59 133.42 103.36 133.3C103.03 133.1 102.65 132.99 102.27 132.97C101.95 132.96 101.63 133.02 101.34 133.15C100.95 133.33 100.95 133.4 100.96 133.39C101.03 133.33 101.09 133.27 101.15 133.2C101.62 132.59 102.02 131.93 102.35 131.24C102.75 130.47 103.12 129.64 103.5 128.81C104.24 127.13 104.92 125.39 105.6 123.63C106.28 121.87 106.93 120.1 107.56 118.3L109.48 112.93L112.72 113.77C112.08 117.61 111.26 121.34 110.26 125.14C109.78 127.03 109.22 128.91 108.58 130.8C108.26 131.75 107.91 132.69 107.5 133.66C107.08 134.71 106.56 135.72 105.95 136.67C105.73 136.99 105.48 137.29 105.21 137.58C104.78 138.04 104.26 138.41 103.68 138.67C103.17 138.89 102.61 138.99 102.05 138.97C101.42 138.95 100.81 138.76 100.27 138.44C99.6397 138.04 99.1097 137.5 98.7397 136.85C98.6097 136.63 98.4997 136.41 98.4297 136.25L98.2697 135.93L97.9497 135.27L97.3097 133.97C96.4697 132.22 95.6297 130.45 94.8997 128.68C94.1697 126.91 93.3897 125.1 92.6697 123.3C91.9497 121.49 91.2997 119.68 90.6797 117.73L97.0597 115.65Z" fill="#E58A7B"/>
<path d="M94.3299 109.46C97.5499 110.23 101.18 119.75 101.18 119.75L91.5999 127.9C91.5999 127.9 85.3999 117.52 86.6499 114.09C87.9499 110.53 90.1299 108.46 94.3299 109.46Z" fill="#08B780"/>
<path d="M111 109.92L114.37 107.11L116.71 110.75L114.99 113.79C114.99 113.79 112.25 116.31 109.82 115.03C109.02 113.25 109.51 111.17 111 109.92Z" fill="#E58A7B"/>
<path d="M120.44 107.12L120.18 108.04L114.86 108.93L114.34 107.11L120.44 107.12Z" fill="#E58A7B"/>
<path d="M90.2999 252.82L80.6899 246.62L82.4199 243.62L93.2099 250.26L90.2999 252.82Z" fill="#08B780"/>
<path d="M73.9797 257.77C73.1397 257.67 72.3297 257.38 71.6097 256.93C71.5297 256.9 71.4897 256.82 71.5197 256.74C71.5397 256.7 71.5697 256.66 71.6097 256.65C71.8697 256.57 74.1297 255.87 74.7897 256.41C74.9397 256.53 75.0097 256.73 74.9797 256.92C74.9597 257.23 74.7697 257.5 74.4997 257.64C74.3397 257.72 74.1597 257.77 73.9797 257.77ZM72.0897 256.85C73.1397 257.39 73.9797 257.58 74.3897 257.38C74.5697 257.28 74.6797 257.1 74.6897 256.89C74.6897 256.76 74.6897 256.7 74.6097 256.66C74.2597 256.37 72.9897 256.59 72.0697 256.85H72.0897Z" fill="#263238"/>
<path d="M71.6698 256.99C71.6298 256.99 71.5798 256.97 71.5498 256.94C71.5198 256.89 71.5198 256.84 71.5498 256.79C71.5498 256.71 72.0998 254.89 72.9498 254.48C73.1698 254.38 73.4298 254.38 73.6498 254.48C73.8898 254.56 74.0498 254.79 74.0398 255.04C73.9798 255.8 72.4398 256.84 71.7298 257.02L71.6698 256.99ZM73.2998 254.69C73.2198 254.69 73.1398 254.71 73.0598 254.75C72.5398 255 72.1098 255.99 71.8998 256.58C72.6398 256.27 73.6598 255.44 73.6898 254.98C73.6898 254.9 73.6898 254.81 73.4998 254.73C73.4398 254.7 73.3698 254.67 73.2998 254.66V254.69Z" fill="#263238"/>
<path d="M85.99 261.41C85.04 261.41 83.72 260.19 82.99 259.44C82.95 259.39 82.95 259.32 82.99 259.26C83.02 259.2 83.0899 259.17 83.1499 259.18C83.4899 259.18 86.41 259.62 86.82 260.44C86.91 260.59 86.91 260.78 86.82 260.93C86.69 261.19 86.44 261.37 86.16 261.4L85.99 261.41ZM83.55 259.55C84.61 260.58 85.54 261.15 86.07 261.08C86.26 261.06 86.42 260.94 86.5099 260.77C86.5499 260.71 86.5499 260.64 86.5099 260.58C86.2899 260.13 84.73 259.74 83.55 259.55Z" fill="#263238"/>
<path d="M83.64 259.51C83.45 259.52 83.26 259.5 83.08 259.47C83.03 259.46 82.98 259.43 82.96 259.38C82.93 259.33 82.93 259.27 82.96 259.22C83.01 259.16 84.15 257.79 85.22 257.7C85.52 257.68 85.83 257.77 86.06 257.97C86.39 258.26 86.37 258.51 86.29 258.67C86.08 259.23 84.62 259.51 83.64 259.51ZM83.42 259.2C84.36 259.25 85.87 258.94 86.06 258.53C86.06 258.53 86.13 258.4 85.91 258.21C85.73 258.06 85.5 257.98 85.27 258.01C84.55 258.21 83.9 258.63 83.42 259.2Z" fill="#263238"/>
<path d="M71.8898 256.08L64.7598 254.06C64.5098 253.98 64.2298 254.11 64.1298 254.35L61.7198 259.76C61.4998 260.3 61.7598 260.92 62.2998 261.14C62.3398 261.16 62.3798 261.17 62.4198 261.18C64.9398 261.84 66.1598 262.02 69.2898 262.92C71.2198 263.46 73.9798 264.46 76.6498 265.22C79.3198 265.98 80.2098 263.38 79.1698 262.82C74.4898 260.35 74.1198 258.61 72.8398 256.76C72.6198 256.43 72.2798 256.19 71.8898 256.08Z" fill="#08B780"/>
<path d="M83.1798 258.45L77.0898 254.24C76.8798 254.08 76.5798 254.11 76.3998 254.31L72.3598 258.65C71.9798 259.09 72.0198 259.75 72.4598 260.13C72.4898 260.16 72.5298 260.19 72.5598 260.21C74.7098 261.65 75.8198 262.23 78.4998 264.09C80.1798 265.23 83.4398 267.77 85.7098 269.36C87.9798 270.94 89.6698 268.77 88.8598 267.91C85.2398 264.05 84.4498 261.63 83.8498 259.43C83.7598 259.04 83.5198 258.69 83.1798 258.45Z" fill="#08B780"/>
<path d="M78.25 250.63L67.27 245.17L68.4 242.19L80.13 247.94L78.25 250.63Z" fill="#08B780"/>
<path d="M63.9699 147.72L63.0399 150.14C62.9499 150.33 63.1699 150.52 63.4799 150.52H91.3099C91.5499 150.52 91.7599 150.4 91.7699 150.25L92.0099 147.84C92.0099 147.68 91.8199 147.54 91.5599 147.54H64.4099C64.2399 147.53 64.0799 147.59 63.9699 147.72Z" fill="#08B780"/>
<path opacity="0.4" d="M63.9699 147.72L63.0399 150.14C62.9499 150.33 63.1699 150.52 63.4799 150.52H91.3099C91.5499 150.52 91.7599 150.4 91.7699 150.25L92.0099 147.84C92.0099 147.68 91.8199 147.54 91.5599 147.54H64.4099C64.2399 147.53 64.0799 147.59 63.9699 147.72Z" fill="white"/>
<path d="M68.35 150.76H67.62C67.48 150.76 67.37 150.68 67.38 150.59L67.72 147.47C67.72 147.39 67.85 147.31 68 147.31H68.73C68.87 147.31 68.98 147.39 68.97 147.47L68.63 150.59C68.62 150.68 68.5 150.76 68.35 150.76Z" fill="#08B780"/>
<path d="M85.5099 150.76H84.7899C84.6499 150.76 84.5399 150.68 84.5499 150.59L84.8899 147.47C84.8899 147.39 85.0299 147.31 85.1799 147.31H85.8999C86.0399 147.31 86.1599 147.39 86.1399 147.47L85.7999 150.59C85.7599 150.68 85.6699 150.76 85.5099 150.76Z" fill="#08B780"/>
<path d="M67.7099 293.23C80.1584 293.23 90.2499 292.5 90.2499 291.6C90.2499 290.7 80.1584 289.97 67.7099 289.97C55.2614 289.97 45.1699 290.7 45.1699 291.6C45.1699 292.5 55.2614 293.23 67.7099 293.23Z" fill="#F5F5F5"/>
<path d="M81.44 289.29C77.45 288.13 73.03 286.64 70.35 285.08C70.27 285.03 70.19 285 70.11 284.96V266.91H78.18C79.51 266.83 80.52 265.69 80.44 264.37C80.37 263.15 79.4 262.18 78.18 262.11H70.15V179.81H65.3V262.11H57.28C55.95 262.03 54.81 263.04 54.74 264.37C54.67 265.7 55.67 266.84 57 266.91C57.09 266.92 57.19 266.92 57.28 266.91H65.3V284.94C65.22 284.94 65.15 285.01 65.07 285.06C62.35 286.64 57.96 288.13 53.97 289.27C53.35 289.46 53 290.12 53.18 290.74C53.33 291.23 53.78 291.57 54.29 291.58H81.09C81.74 291.54 82.23 290.97 82.19 290.32C82.18 289.86 81.88 289.46 81.44 289.29Z" fill="#E0E0E0"/>
<path d="M52.7599 171.44H82.6799C85.0899 171.44 87.0399 173.39 87.0399 175.8V184.69C87.0399 187.1 85.0899 189.05 82.6799 189.05H52.7599C50.3499 189.05 48.3999 187.1 48.3999 184.69V175.8C48.4099 173.39 50.3599 171.44 52.7599 171.44Z" fill="#08B780"/>
<path d="M52.4897 189.05V190.58C52.4897 191.84 53.8597 192.87 55.5397 192.87H79.9398C81.6198 192.87 82.9898 191.84 82.9898 190.58V189.05H52.4897Z" fill="#08B780"/>
<path opacity="0.3" d="M52.4897 189.05V190.58C52.4897 191.84 53.8597 192.87 55.5397 192.87H79.9398C81.6198 192.87 82.9898 191.84 82.9898 190.58V189.05H52.4897Z" fill="white"/>
</svg>
