<svg width="327" height="299" viewBox="0 0 327 299" fill="none" xmlns="http://www.w3.org/2000/svg">
<g clip-path="url(#clip0_211_870)">
<path opacity="0.25" d="M126.94 173.1C198.45 173.31 270.99 230.88 287.45 135.92C295.81 87.6001 333.4 68.7401 310.68 37.6201C295.08 16.2801 241.64 -0.359883 216 0.000117099C177.36 0.540117 160.75 27.0701 140 55.0001C116.39 86.6801 86 89.4401 58.87 113.53C39.07 131.11 30.87 176.2 56.77 194.35C88.54 216.6 96.45 173 126.94 173.1Z" fill="white" fill-opacity="0.25"/>
<g opacity="0.25">
<path opacity="0.25" d="M163.12 298.59C253.209 298.59 326.24 294.328 326.24 289.07C326.24 283.812 253.209 279.55 163.12 279.55C73.0313 279.55 0 283.812 0 289.07C0 294.328 73.0313 298.59 163.12 298.59Z" fill="#F5F5F5"/>
</g>
<path d="M270.43 30.71H173.6C170.281 30.7664 167.102 32.0562 164.682 34.3281C162.263 36.6001 160.775 39.6914 160.51 43L145.45 274.84C145.215 277.857 146.189 280.843 148.156 283.142C150.123 285.442 152.923 286.865 155.94 287.1C156.273 287.119 156.607 287.119 156.94 287.1H253.8C257.12 287.048 260.301 285.76 262.722 283.487C265.143 281.214 266.629 278.12 266.89 274.81L277.7 108.18C278.158 108.02 278.561 107.731 278.859 107.348C279.157 106.965 279.338 106.504 279.38 106.02L281.31 76.21C281.345 75.7464 281.229 75.2838 280.978 74.8923C280.727 74.5008 280.356 74.2016 279.92 74.04L281.92 42.98C282.036 41.4854 281.856 39.9826 281.392 38.5575C280.927 37.1324 280.185 35.8128 279.21 34.6743C278.235 33.5357 277.045 32.6005 275.709 31.922C274.372 31.2435 272.915 30.835 271.42 30.72C271.1 30.72 270.77 30.71 270.43 30.71Z" fill="#08B780"/>
<path d="M152.67 90.7399H154.57C155.159 90.7317 155.724 90.5034 156.153 90.1C156.582 89.6966 156.845 89.1473 156.89 88.5599L157.74 76.1099C157.763 75.844 157.733 75.5761 157.651 75.322C157.569 75.0679 157.437 74.8328 157.263 74.6306C157.088 74.4283 156.875 74.263 156.636 74.1444C156.397 74.0258 156.136 73.9563 155.87 73.9399H153.8C153.211 73.9482 152.646 74.1765 152.217 74.5798C151.788 74.9832 151.525 75.5326 151.48 76.1199L150.64 88.5699C150.617 88.8359 150.647 89.1038 150.729 89.3579C150.811 89.612 150.943 89.8471 151.117 90.0493C151.292 90.2515 151.505 90.4168 151.744 90.5355C151.983 90.6541 152.243 90.7236 152.51 90.7399H152.67Z" fill="#08B780"/>
<path d="M151.23 113H153.13C153.721 112.989 154.287 112.759 154.717 112.355C155.148 111.95 155.413 111.399 155.46 110.81L156.3 98.3699C156.324 98.1032 156.295 97.8342 156.214 97.579C156.132 97.3237 156.001 97.0874 155.826 96.8841C155.652 96.6808 155.438 96.5145 155.198 96.3953C154.959 96.2761 154.697 96.2062 154.43 96.1899H152.36C151.77 96.1921 151.202 96.4133 150.766 96.8106C150.33 97.2078 150.057 97.7528 150 98.3399L149.16 110.78C149.129 111.047 149.153 111.318 149.23 111.576C149.307 111.834 149.435 112.074 149.607 112.282C149.779 112.489 149.991 112.659 150.23 112.783C150.469 112.906 150.731 112.98 151 113H151.23Z" fill="#08B780"/>
<path d="M248.66 287.13H151.84C150.341 287.147 148.854 286.869 147.463 286.311C146.072 285.754 144.805 284.928 143.733 283.88C142.662 282.833 141.807 281.584 141.218 280.207C140.629 278.829 140.317 277.348 140.3 275.85C140.3 275.52 140.3 275.18 140.3 274.85L155.36 43C155.625 39.6888 157.114 36.5949 159.535 34.3211C161.957 32.0473 165.138 30.7565 168.46 30.7H265.28C268.307 30.6707 271.222 31.8445 273.384 33.9634C275.546 36.0823 276.778 38.9729 276.81 42C276.83 42.333 276.83 42.667 276.81 43L261.81 274.83C261.55 278.152 260.057 281.257 257.623 283.533C255.189 285.81 251.992 287.093 248.66 287.13V287.13Z" fill="#263238"/>
<path opacity="0.2" d="M206.827 277.276C210.219 273.992 210.475 268.753 207.398 265.574C204.322 262.396 199.077 262.481 195.684 265.766C192.291 269.05 192.035 274.289 195.112 277.468C198.189 280.646 203.434 280.56 206.827 277.276Z" fill="white"/>
<path d="M257.41 257H147.35C146.989 257.001 146.631 256.931 146.297 256.793C145.964 256.655 145.661 256.453 145.406 256.197C145.151 255.941 144.95 255.637 144.813 255.303C144.676 254.969 144.607 254.611 144.61 254.25V254.08L157.49 55.3C157.548 54.613 157.861 53.9727 158.369 53.5059C158.876 53.0392 159.54 52.7801 160.23 52.78H270.3C271.021 52.7906 271.71 53.0852 272.215 53.6001C272.721 54.115 273.003 54.8085 273 55.53V55.7L260.15 254.47C260.095 255.159 259.782 255.802 259.274 256.27C258.767 256.739 258.101 257 257.41 257V257Z" fill="white"/>
<path opacity="0.2" d="M217.56 213.848C225.303 206.856 226.27 195.307 219.719 188.051C213.167 180.796 201.579 180.582 193.836 187.573C186.093 194.565 185.127 206.115 191.678 213.37C198.229 220.625 209.817 220.839 217.56 213.848Z" fill="#08B780"/>
<path opacity="0.2" d="M202.92 228.81C199.286 228.728 195.709 227.889 192.418 226.347C189.127 224.805 186.193 222.594 183.804 219.855C181.415 217.116 179.623 213.909 178.543 210.439C177.462 206.969 177.117 203.311 177.53 199.7C178.379 192.123 182.03 185.137 187.765 180.114C193.501 175.091 200.907 172.393 208.53 172.55C212.163 172.632 215.739 173.471 219.03 175.013C222.321 176.555 225.254 178.766 227.643 181.505C230.031 184.244 231.822 187.451 232.901 190.922C233.98 194.392 234.324 198.049 233.91 201.66C233.059 209.234 229.409 216.217 223.676 221.24C217.943 226.263 210.54 228.962 202.92 228.81V228.81ZM208.44 173.06C200.954 172.904 193.681 175.552 188.048 180.485C182.416 185.418 178.832 192.279 178 199.72C177.594 203.266 177.933 206.857 178.993 210.264C180.054 213.672 181.813 216.821 184.159 219.51C186.505 222.2 189.386 224.371 192.618 225.884C195.85 227.397 199.362 228.22 202.93 228.3C210.415 228.456 217.689 225.808 223.321 220.875C228.953 215.942 232.538 209.081 233.37 201.64C233.777 198.094 233.439 194.502 232.38 191.094C231.32 187.686 229.56 184.536 227.214 181.846C224.868 179.157 221.986 176.986 218.754 175.473C215.521 173.96 212.008 173.138 208.44 173.06V173.06Z" fill="#08B780"/>
<path d="M201 209.39L199.56 206.39C196.46 199.82 189 193.79 186.38 192.01L189.04 188.32C194.152 191.887 198.559 196.369 202.04 201.54C209.69 193.09 220.38 184.49 234.61 175.3L236.86 178.96C221.65 188.78 210.64 197.85 203.22 206.71L201 209.39Z" fill="#08B780"/>
<path opacity="0.2" d="M198.101 43.9475C199.474 42.6184 199.575 40.4955 198.326 39.2058C197.078 37.9162 194.953 37.9482 193.58 39.2773C192.207 40.6064 192.106 42.7293 193.354 44.0189C194.603 45.3086 196.728 45.2766 198.101 43.9475Z" fill="white"/>
<path opacity="0.2" d="M207.63 38.26H235.47C235.878 38.2547 236.283 38.33 236.662 38.4816C237.04 38.6331 237.386 38.858 237.677 39.1432C237.969 39.4284 238.201 39.7684 238.362 40.1436C238.522 40.5189 238.606 40.9221 238.61 41.33C238.615 41.4266 238.615 41.5234 238.61 41.62V41.62C238.544 42.5345 238.136 43.3906 237.467 44.0172C236.798 44.6438 235.917 44.9948 235 45H207.2C206.374 45.0054 205.58 44.6831 204.991 44.1039C204.403 43.5247 204.068 42.7358 204.06 41.91C204.055 41.8168 204.055 41.7233 204.06 41.63V41.63C204.125 40.7233 204.528 39.874 205.189 39.25C205.85 38.626 206.721 38.2727 207.63 38.26Z" fill="white"/>
<g opacity="0.35">
<path opacity="0.35" d="M210.76 128.75L210.67 130" stroke="#08B780" stroke-width="0.84" stroke-miterlimit="10"/>
<path opacity="0.35" d="M210.5 132.43L207.87 170.06" stroke="#08B780" stroke-width="0.84" stroke-miterlimit="10" stroke-dasharray="2.43 2.43"/>
<path opacity="0.35" d="M207.78 171.27L207.69 172.53" stroke="#08B780" stroke-width="0.84" stroke-miterlimit="10"/>
</g>
<g opacity="0.85">
<path opacity="0.85" d="M181.52 83.1499L243.63 83.7499C244.165 83.7362 244.697 83.8342 245.192 84.0376C245.686 84.2409 246.133 84.5452 246.504 84.931C246.875 85.3167 247.161 85.7756 247.345 86.2781C247.528 86.7807 247.605 87.316 247.57 87.8499L244.65 128.85C244.535 129.958 244.01 130.983 243.177 131.724C242.344 132.464 241.264 132.866 240.15 132.85L178.46 132.25C177.921 132.267 177.385 132.173 176.885 131.971C176.385 131.77 175.933 131.467 175.556 131.081C175.18 130.696 174.888 130.236 174.699 129.731C174.511 129.226 174.429 128.688 174.46 128.15L176.98 87.1499C177.089 86.0318 177.618 84.9967 178.461 84.254C179.304 83.5114 180.397 83.1167 181.52 83.1499V83.1499Z" fill="#08B780"/>
<path opacity="0.85" d="M245.17 86.7999C245.653 86.7148 246.147 86.7148 246.63 86.7999C246.147 86.8799 245.653 86.8799 245.17 86.7999V86.7999Z" fill="#263238"/>
<path opacity="0.85" d="M239.23 86.74C240.228 86.6583 241.232 86.6583 242.23 86.74C241.232 86.8216 240.228 86.8216 239.23 86.74V86.74Z" fill="#263238"/>
<path opacity="0.85" d="M233.29 86.6799C234.288 86.5982 235.292 86.5982 236.29 86.6799C235.292 86.7616 234.288 86.7616 233.29 86.6799Z" fill="#263238"/>
<path opacity="0.85" d="M227.35 86.6198C228.348 86.5382 229.351 86.5382 230.35 86.6198C229.351 86.7015 228.348 86.7015 227.35 86.6198V86.6198Z" fill="#263238"/>
<path opacity="0.85" d="M221.41 86.5698C222.408 86.4881 223.411 86.4881 224.41 86.5698C223.411 86.6515 222.408 86.6515 221.41 86.5698Z" fill="#263238"/>
<path opacity="0.85" d="M215.47 86.5099C216.468 86.4283 217.471 86.4283 218.47 86.5099C217.471 86.5916 216.468 86.5916 215.47 86.5099Z" fill="#263238"/>
<path opacity="0.85" d="M209.53 86.4499C210.528 86.3676 211.531 86.3676 212.53 86.4499C211.531 86.5321 210.528 86.5321 209.53 86.4499Z" fill="#263238"/>
<path opacity="0.85" d="M203.58 86.3998C204.578 86.313 205.582 86.313 206.58 86.3998C205.582 86.4865 204.578 86.4865 203.58 86.3998V86.3998Z" fill="#263238"/>
<path opacity="0.85" d="M197.64 86.3398C198.638 86.2582 199.641 86.2582 200.64 86.3398C199.641 86.4215 198.638 86.4215 197.64 86.3398V86.3398Z" fill="#263238"/>
<path opacity="0.85" d="M191.7 86.2799C192.698 86.2046 193.701 86.2046 194.7 86.2799C194.204 86.32 193.706 86.32 193.21 86.2799C192.707 86.3222 192.202 86.3222 191.7 86.2799V86.2799Z" fill="#263238"/>
<path opacity="0.85" d="M185.75 86.2299C186.246 86.1851 186.744 86.1851 187.24 86.2299C187.738 86.213 188.236 86.2364 188.73 86.2999C188.234 86.3447 187.736 86.3447 187.24 86.2999C186.742 86.3167 186.244 86.2933 185.75 86.2299Z" fill="#263238"/>
<path opacity="0.85" d="M181.24 87.5798C181.195 87.1142 181.195 86.6454 181.24 86.1798L181.3 86.1198H181.87H182.33C182.472 86.0996 182.617 86.0996 182.76 86.1198C182.617 86.1441 182.472 86.1441 182.33 86.1198H181.33L181.39 86.0598C181.386 86.57 181.336 87.0788 181.24 87.5798V87.5798Z" fill="#263238"/>
<path opacity="0.85" d="M180.92 92.81C180.879 91.9367 180.933 91.0617 181.08 90.2C181.12 90.6324 181.12 91.0675 181.08 91.5C181.067 91.9406 181.013 92.3791 180.92 92.81V92.81Z" fill="#263238"/>
<path opacity="0.85" d="M180.59 97.9999C180.564 97.1268 180.617 96.2532 180.75 95.3899C180.782 96.263 180.728 97.1372 180.59 97.9999V97.9999Z" fill="#263238"/>
<path opacity="0.85" d="M180.27 103.26C180.238 102.387 180.292 101.513 180.43 100.65C180.456 101.523 180.403 102.397 180.27 103.26V103.26Z" fill="#263238"/>
<path opacity="0.85" d="M179.94 108.49C179.913 107.617 179.967 106.743 180.1 105.88C180.131 106.753 180.078 107.627 179.94 108.49Z" fill="#263238"/>
<path opacity="0.85" d="M179.62 113.71C179.589 112.837 179.642 111.963 179.78 111.1C179.812 111.973 179.758 112.847 179.62 113.71V113.71Z" fill="#263238"/>
<path opacity="0.85" d="M179.29 118.94C179.261 118.066 179.318 117.192 179.46 116.33C179.483 117.203 179.426 118.077 179.29 118.94V118.94Z" fill="#263238"/>
<path opacity="0.85" d="M179 124.17C178.968 123.293 179.022 122.416 179.16 121.55C179.191 122.426 179.138 123.304 179 124.17V124.17Z" fill="#263238"/>
<path opacity="0.85" d="M180.17 128.19C179.689 128.246 179.204 128.263 178.72 128.24L178.66 128.18V127.9V127.63V127.19C178.658 127.05 178.681 126.911 178.73 126.78C178.745 126.916 178.745 127.054 178.73 127.19C178.73 127.34 178.73 127.48 178.73 127.64V128.18L178.67 128.12C179.171 128.101 179.673 128.125 180.17 128.19Z" fill="#263238"/>
<path opacity="0.85" d="M186 128.25C185.035 128.337 184.064 128.337 183.1 128.25C183.584 128.193 184.072 128.177 184.56 128.2C185.04 128.177 185.522 128.193 186 128.25V128.25Z" fill="#263238"/>
<path opacity="0.85" d="M191.81 128.3C191.328 128.345 190.842 128.345 190.36 128.3C189.879 128.317 189.397 128.294 188.92 128.23C189.401 128.168 189.886 128.151 190.37 128.18C190.852 128.18 191.334 128.22 191.81 128.3Z" fill="#263238"/>
<path opacity="0.85" d="M197.63 128.36C196.661 128.44 195.688 128.44 194.72 128.36C195.688 128.28 196.661 128.28 197.63 128.36Z" fill="#263238"/>
<path opacity="0.85" d="M203.46 128.42C202.488 128.5 201.512 128.5 200.54 128.42C201.512 128.34 202.488 128.34 203.46 128.42V128.42Z" fill="#263238"/>
<path opacity="0.85" d="M209.28 128.47C208.311 128.55 207.338 128.55 206.37 128.47C207.338 128.385 208.311 128.385 209.28 128.47V128.47Z" fill="#263238"/>
<path opacity="0.85" d="M215.1 128.53C214.132 128.61 213.158 128.61 212.19 128.53C213.158 128.45 214.132 128.45 215.1 128.53Z" fill="#263238"/>
<path opacity="0.85" d="M220.91 128.59C219.942 128.67 218.968 128.67 218 128.59C218.968 128.51 219.942 128.51 220.91 128.59Z" fill="#263238"/>
<path opacity="0.85" d="M226.74 128.64C225.772 128.72 224.798 128.72 223.83 128.64C224.798 128.56 225.772 128.56 226.74 128.64V128.64Z" fill="#263238"/>
<path opacity="0.85" d="M232.56 128.7C231.592 128.78 230.618 128.78 229.65 128.7C230.618 128.62 231.592 128.62 232.56 128.7Z" fill="#263238"/>
<path opacity="0.85" d="M238.39 128.75C237.422 128.835 236.448 128.835 235.48 128.75C236.448 128.665 237.422 128.665 238.39 128.75V128.75Z" fill="#263238"/>
<path opacity="0.85" d="M242.75 128.8C242.27 128.88 241.78 128.88 241.3 128.8C241.78 128.72 242.27 128.72 242.75 128.8Z" fill="#263238"/>
<g opacity="0.15">
<path opacity="0.15" d="M199.85 110.79C199.761 112.083 199.421 113.346 198.85 114.51C198.02 115.9 197.75 116.46 196.17 116.98C194.59 117.5 175.08 118.08 175.08 118.08L175.47 111.75L199.85 110.79Z" fill="black"/>
</g>
<g opacity="0.15">
<path opacity="0.15" d="M200.13 101.82C200.13 101.82 200.51 99.44 194.36 98.5C187.36 97.42 176.48 96.73 176.48 96.73L176.21 101.23L200.13 101.82Z" fill="black"/>
</g>
<path opacity="0.85" d="M176.92 99.4399L197.11 99.6299C197.549 99.6209 197.986 99.7029 198.392 99.8706C198.799 100.038 199.166 100.288 199.471 100.605C199.776 100.921 200.013 101.297 200.166 101.709C200.319 102.122 200.385 102.561 200.36 103L199.8 111.69C199.714 112.602 199.288 113.449 198.606 114.06C197.924 114.672 197.036 115.004 196.12 114.99L176 114.8C175.56 114.809 175.124 114.727 174.717 114.559C174.311 114.391 173.944 114.141 173.638 113.825C173.333 113.508 173.097 113.132 172.944 112.72C172.791 112.308 172.725 111.869 172.75 111.43L173.28 102.74C173.36 101.833 173.78 100.989 174.454 100.378C175.129 99.7662 176.009 99.4313 176.92 99.4399V99.4399Z" fill="#08B780"/>
<path opacity="0.45" d="M176 114.79H175.8C175.598 114.778 175.398 114.751 175.2 114.71C174.885 114.632 174.582 114.511 174.3 114.35C173.911 114.14 173.57 113.85 173.3 113.5C172.977 113.063 172.774 112.549 172.71 112.01C172.675 111.701 172.675 111.389 172.71 111.08L172.78 110.08C172.86 108.7 172.96 107.08 173.06 105.38L173.23 102.63C173.287 102.115 173.455 101.618 173.723 101.175C173.99 100.731 174.351 100.351 174.78 100.06C175.241 99.7415 175.767 99.5297 176.32 99.44C176.598 99.3985 176.879 99.3817 177.16 99.39L181.52 99.44L197.14 99.59C197.652 99.5845 198.158 99.6971 198.619 99.9191C199.081 100.141 199.485 100.467 199.8 100.87C200.205 101.389 200.436 102.022 200.46 102.68C200.46 103.01 200.46 103.33 200.46 103.68L200.34 105.58L200.1 109.28L199.98 111.07C199.98 111.37 199.98 111.66 199.92 111.96C199.907 112.109 199.88 112.256 199.84 112.4C199.799 112.543 199.749 112.683 199.69 112.82C199.448 113.373 199.076 113.859 198.606 114.236C198.136 114.614 197.582 114.873 196.99 114.99L196.57 115.06H196.14H193.68L187.7 115L179.12 114.89H176.79H179.12L187.7 114.95L193.63 115.01H195.25C195.804 115.043 196.361 115.016 196.91 114.93C197.478 114.809 198.009 114.553 198.458 114.184C198.907 113.815 199.261 113.344 199.49 112.81C199.688 112.262 199.786 111.683 199.78 111.1L199.89 109.31L200.13 105.61L200.26 103.71C200.26 103.39 200.26 103.07 200.26 102.71C200.241 102.075 200.02 101.462 199.63 100.96C199.436 100.711 199.207 100.492 198.95 100.31C198.675 100.125 198.375 99.9804 198.06 99.88C197.734 99.7879 197.398 99.7375 197.06 99.73L181.45 99.58H177.09C176.814 99.5548 176.536 99.5548 176.26 99.58C175.724 99.6628 175.214 99.8681 174.77 100.18C174.351 100.459 173.998 100.826 173.737 101.257C173.477 101.687 173.313 102.17 173.26 102.67C173.19 103.67 173.14 104.54 173.09 105.41C172.98 107.16 172.89 108.74 172.8 110.12L172.74 111.12C172.71 111.426 172.71 111.734 172.74 112.04C172.821 112.679 173.095 113.278 173.525 113.757C173.956 114.236 174.523 114.572 175.15 114.72C175.343 114.77 175.541 114.8 175.74 114.81L176 114.79Z" fill="black"/>
<path opacity="0.85" d="M192.24 102.26C192.976 102.243 193.707 102.38 194.388 102.66C195.069 102.94 195.684 103.358 196.195 103.888C196.706 104.418 197.102 105.048 197.358 105.739C197.613 106.429 197.723 107.165 197.68 107.9C197.537 109.427 196.823 110.845 195.681 111.87C194.54 112.895 193.054 113.452 191.52 113.43C190.784 113.445 190.053 113.308 189.373 113.027C188.693 112.746 188.079 112.328 187.568 111.798C187.057 111.269 186.661 110.639 186.405 109.949C186.149 109.26 186.038 108.524 186.08 107.79C186.218 106.261 186.931 104.84 188.073 103.815C189.216 102.789 190.704 102.233 192.24 102.26V102.26Z" fill="#263238"/>
<path opacity="0.85" d="M193.07 112.42C193.575 112.253 194.055 112.021 194.5 111.73C194.974 111.414 195.395 111.026 195.75 110.58C196.179 110.059 196.481 109.445 196.632 108.788C196.783 108.13 196.779 107.446 196.62 106.79C196.499 106.263 196.279 105.764 195.97 105.32C195.689 104.915 195.352 104.551 194.97 104.24C195.003 104.25 195.033 104.267 195.06 104.29C195.149 104.341 195.233 104.401 195.31 104.47C195.6 104.699 195.856 104.968 196.07 105.27C196.39 105.718 196.621 106.224 196.75 106.76C196.918 107.431 196.925 108.132 196.77 108.807C196.615 109.481 196.303 110.109 195.86 110.64C195.499 111.094 195.062 111.483 194.57 111.79C194.245 112.007 193.892 112.179 193.52 112.3C193.42 112.3 193.31 112.36 193.21 112.39L193.07 112.42Z" fill="#FAFAFA"/>
</g>
<path d="M104 100.42C102.58 101.87 101.06 103.48 99.6501 105.08C98.2401 106.68 96.8401 108.31 95.5201 110C94.2001 111.69 93.0001 113.36 91.7501 115.14L90.9101 116.46L90.0701 117.8C89.7901 118.24 89.5401 118.7 89.2901 119.16L88.6201 120.4C88.3468 121.106 88.1914 121.853 88.1601 122.61C88.0901 123.585 88.0901 124.564 88.1601 125.54C88.32 127.641 88.6004 129.731 89.0001 131.8C89.3701 133.92 89.8401 136.05 90.3401 138.17C90.8401 140.29 91.3401 142.44 91.9401 144.52L88.8201 145.69C86.8997 141.586 85.2886 137.344 84.0001 133C83.3487 130.756 82.8509 128.471 82.5101 126.16C82.3386 124.931 82.2517 123.691 82.2501 122.45C82.2305 120.984 82.4779 119.527 82.9801 118.15C83.1701 117.68 83.2701 117.49 83.4101 117.15L83.8001 116.35C84.0445 115.808 84.3252 115.284 84.6401 114.78L85.4801 113.23L86.3701 111.73C87.5715 109.75 88.8801 107.837 90.2901 106C91.6701 104.16 93.1001 102.37 94.6001 100.63C96.1001 98.8899 97.6001 97.2699 99.3801 95.6299L104 100.42Z" fill="#B55B52"/>
<path d="M104.37 90.3199C99.81 90.5199 95.48 98.0899 95.48 98.0899L101.48 110.38C101.48 110.38 109.64 103.59 109.74 96.9199C109.83 92.5599 108.86 90.1099 104.37 90.3199Z" fill="#08B780"/>
<path opacity="0.7" d="M104.37 90.3199C99.81 90.5199 95.48 98.0899 95.48 98.0899L101.48 110.38C101.48 110.38 109.64 103.59 109.74 96.9199C109.83 92.5599 108.86 90.1099 104.37 90.3199Z" fill="white"/>
<path opacity="0.2" d="M105.46 99.15C104.13 101.15 103.46 106.38 103.29 108.7C105.282 106.747 106.967 104.506 108.29 102.05C107.43 99.8 106.33 97.83 105.46 99.15Z" fill="black"/>
<path d="M91.0501 143.25L96.5901 144.93L92.9001 148.66C92.9001 148.66 88.9001 147.43 88.3501 144.71L91.0501 143.25Z" fill="#B55B52"/>
<path d="M99.9499 149.16L99.0099 152.74L92.8999 148.63L96.5899 144.9L99.9499 149.16Z" fill="#B55B52"/>
<path d="M136.43 75.7199C136.25 76.2199 136.38 76.7199 136.7 76.8399C137.02 76.9599 137.44 76.6699 137.6 76.1699C137.76 75.6699 137.65 75.1699 137.33 75.0399C137.01 74.9099 136.6 75.2199 136.43 75.7199Z" fill="#263238"/>
<path d="M137.17 75L138.5 75.11C138.5 75.11 137.55 75.82 137.17 75Z" fill="#263238"/>
<path d="M136.68 76.3599C136.727 77.671 136.953 78.9695 137.35 80.2199C137.029 80.3027 136.694 80.3152 136.368 80.2566C136.042 80.1979 135.732 80.0694 135.46 79.8799L136.68 76.3599Z" fill="#A02724"/>
<path d="M138.06 73.78C138 73.7715 137.944 73.7449 137.899 73.7038C137.855 73.6628 137.823 73.6091 137.81 73.55C137.716 73.1704 137.538 72.8168 137.289 72.5155C137.039 72.2142 136.725 71.9731 136.37 71.81C136.304 71.7758 136.252 71.719 136.224 71.6499C136.197 71.5807 136.195 71.504 136.219 71.4336C136.243 71.3632 136.292 71.3038 136.357 71.2665C136.421 71.2291 136.497 71.2162 136.57 71.23V71.23C137.027 71.4285 137.431 71.7321 137.749 72.1161C138.067 72.5001 138.29 72.9537 138.4 73.44C138.41 73.4794 138.413 73.5205 138.408 73.561C138.402 73.6014 138.389 73.6404 138.369 73.6757C138.348 73.711 138.321 73.7419 138.289 73.7667C138.256 73.7915 138.219 73.8096 138.18 73.82V73.82L138.06 73.78Z" fill="#263238"/>
<path d="M119.15 77.8298C119.26 81.8298 118.86 88.9698 115.78 90.9998C115.78 90.9998 116.19 95.0898 123.35 96.4798C131.22 97.9998 127.75 93.3198 127.75 93.3198C123.63 91.4698 124.26 88.3198 125.5 85.4998L119.15 77.8298Z" fill="#B55B52"/>
<path d="M142.52 105.07C143.23 106.99 144.04 109.07 144.9 111.07C145.76 113.07 146.58 115.07 147.58 116.96C148.58 118.85 149.58 120.78 150.58 122.64C151.13 123.56 151.67 124.48 152.26 125.35C152.55 125.81 152.84 126.24 153.15 126.66L153.61 127.3L153.83 127.62L153.95 127.78L154.03 127.87C154.574 128.495 155.203 129.041 155.9 129.49C156.733 130.061 157.598 130.585 158.49 131.06C160.33 132.06 162.31 132.95 164.32 133.8C166.33 134.65 168.38 135.48 170.46 136.21C172.54 136.94 174.66 137.72 176.71 138.44L175.93 141.67C171.42 140.918 166.964 139.872 162.59 138.54C160.352 137.852 158.155 137.037 156.01 136.1C154.885 135.604 153.79 135.043 152.73 134.42C151.501 133.718 150.388 132.831 149.43 131.79L149.22 131.56L149.08 131.39L148.8 131.04L148.25 130.33C147.87 129.87 147.51 129.4 147.17 128.92C146.46 127.92 145.8 126.99 145.17 126.01C143.898 124.069 142.723 122.067 141.65 120.01C140.58 117.95 139.57 115.87 138.65 113.75C137.73 111.63 136.9 109.54 136.13 107.22L142.52 105.07Z" fill="#B55B52"/>
<path d="M175.64 138.41L180.64 136.49L180.4 142.22C180.4 142.22 176.4 143.29 174.51 141.22L175.64 138.41Z" fill="#B55B52"/>
<path d="M184.35 138.46L186.04 142.12L180.36 142.22L180.6 136.49L184.35 138.46Z" fill="#B55B52"/>
<path d="M102.03 282.04L108.59 282.53L110.55 267.45L103.98 266.96L102.03 282.04Z" fill="#B55B52"/>
<path d="M49.98 247.92L54.27 253.02L67.01 244.83L62.72 239.74L49.98 247.92Z" fill="#B55B52"/>
<path d="M56.2699 252.36L52.8199 245.72C52.7653 245.604 52.6697 245.512 52.5516 245.462C52.4335 245.412 52.3011 245.408 52.1799 245.45L46.6799 247.35C46.5472 247.395 46.4257 247.469 46.3231 247.564C46.2205 247.66 46.1392 247.776 46.0845 247.906C46.0298 248.035 46.0029 248.174 46.0056 248.314C46.0082 248.455 46.0404 248.593 46.0999 248.72V248.83C47.3499 251.13 48.0999 252.19 49.5799 255.1C50.5199 256.89 51.7099 259.61 52.9899 262.1C54.2699 264.59 56.7399 263.48 56.4199 262.32C54.9699 257.18 55.9299 255.76 56.4199 253.53C56.5052 253.134 56.4522 252.721 56.2699 252.36V252.36Z" fill="#263238"/>
<path d="M109 281.6H101.61C101.483 281.596 101.359 281.638 101.262 281.72C101.164 281.801 101.099 281.914 101.08 282.04L100.08 287.88C100.063 288.014 100.074 288.151 100.112 288.281C100.15 288.411 100.213 288.532 100.3 288.637C100.386 288.742 100.492 288.828 100.612 288.89C100.733 288.953 100.865 288.99 101 289H101.15C103.73 289 104.97 288.81 108.21 288.81C110.21 288.81 114.34 289.02 117.1 289.02C119.86 289.02 120.1 286.29 118.93 286.02C113.81 284.92 111.82 283.39 110.12 281.93C109.802 281.682 109.401 281.564 109 281.6V281.6Z" fill="#263238"/>
<path opacity="0.2" d="M110.55 267.45L109.46 275.83L102.92 275.18L103.98 266.97L110.55 267.45Z" fill="black"/>
<path opacity="0.2" d="M62.7198 239.74L67.0098 244.83L61.7298 248.22L57.2798 243.23L62.7198 239.74Z" fill="black"/>
<path d="M102.55 130.32L128.9 135.43C141.35 98.77 138.37 97.57 138.37 97.57C136.427 96.527 134.424 95.602 132.37 94.8L132.01 94.66C130.32 94.05 130.01 93.95 127.71 93.3C123.83 92.38 120.22 91.62 115.71 90.98L114.87 90.87C114.03 90.77 113.25 90.68 112.48 90.61C111.96 90.55 111.48 90.51 110.94 90.48L109.26 90.39C106.38 90.24 104.32 90.29 104.32 90.29C105.83 113.18 104.73 119.77 102.55 130.32Z" fill="#08B780"/>
<path opacity="0.7" d="M102.55 130.32L128.9 135.43C141.35 98.77 138.37 97.57 138.37 97.57C136.427 96.527 134.424 95.602 132.37 94.8L132.01 94.66C130.32 94.05 130.01 93.95 127.71 93.3C123.83 92.38 120.22 91.62 115.71 90.98L114.87 90.87C114.03 90.77 113.25 90.68 112.48 90.61C111.96 90.55 111.48 90.51 110.94 90.48L109.26 90.39C106.38 90.24 104.32 90.29 104.32 90.29C105.83 113.18 104.73 119.77 102.55 130.32Z" fill="white"/>
<path opacity="0.2" d="M134.58 106.13L132.2 105.74C132.447 109.827 133.241 113.863 134.56 117.74C135.56 114.37 136.31 111.6 136.89 109.27L134.58 106.13Z" fill="black"/>
<path d="M137.45 97.13C141.35 98.37 144.18 106.13 145.24 109.4L137.67 118.29C137.67 118.29 129.91 107.15 131.15 103.69C132.39 100.23 135.57 96.51 137.45 97.13Z" fill="#08B780"/>
<path opacity="0.7" d="M137.45 97.13C141.35 98.37 144.18 106.13 145.24 109.4L137.67 118.29C137.67 118.29 129.91 107.15 131.15 103.69C132.39 100.23 135.57 96.51 137.45 97.13Z" fill="white"/>
<path d="M140 68.6698C139.21 70.9698 135.79 71.8899 132.38 70.7299C128.97 69.5699 126.82 66.7299 127.6 64.4699C128.38 62.2099 131.81 61.2499 135.18 62.4099C138.55 63.5699 140.75 66.3798 140 68.6698Z" fill="#263238"/>
<path d="M120.21 68C118.46 74.26 117.59 76.87 119.59 81.18C122.59 87.66 130.66 88.68 134.25 83.12C137.47 78.12 139.79 68.73 134.64 64.02C133.552 62.9694 132.209 62.2209 130.743 61.8486C129.277 61.4762 127.739 61.4928 126.282 61.8968C124.825 62.3008 123.498 63.0782 122.433 64.1521C121.368 65.226 120.602 66.5592 120.21 68.02V68Z" fill="#B55B52"/>
<path d="M130 60.7299C127.48 62.1799 122.12 53.1199 115.46 60.7299C110.7 66.1899 113.74 74.1899 113.74 74.1899C113.74 74.1899 109.94 67.5199 106.91 70.7799C103 74.9999 107 89.9999 120.08 88.9999C133.16 87.9999 131.86 77.3799 131.86 77.3799C131.86 77.3799 137.97 71.1699 137.66 65.5999C137.44 61.4299 134.2 58.3499 130 60.7299Z" fill="#263238"/>
<path d="M131.57 73.42C131.249 74.5848 131.291 75.8197 131.69 76.96C132.23 78.57 133.46 78.57 134.12 77.46C134.525 76.8136 134.747 76.069 134.761 75.3061C134.775 74.5433 134.581 73.791 134.2 73.13C133.27 71.84 132 72.13 131.57 73.42Z" fill="#B55B52"/>
<path d="M121.9 134.07C121.9 134.07 119.09 143.81 115.48 156.66C113.08 165.23 110.32 175.17 107.8 184.54C106.37 189.9 105.01 195.06 103.8 199.68C97.1898 225.8 64.2098 248.26 64.2098 248.26L57.8198 241.26C57.8198 241.26 79.9798 222.6 86.4298 198.26C99.4298 148.78 92.1198 140.44 102.5 130.38L121.9 134.07Z" fill="#263238"/>
<path opacity="0.2" d="M119.05 142.8C118.05 146.58 116.85 151.35 115.49 156.68C113.1 165.25 110.34 175.19 107.82 184.55C106.74 172.61 106.14 150.64 114.93 143.81C116.66 142.48 118 142.2 119.05 142.8Z" fill="black"/>
<path d="M64.7998 249.27L56.8198 240.49L59.2398 238.07L69.0198 247.29L64.7998 249.27Z" fill="#08B780"/>
<path opacity="0.7" d="M64.7998 249.27L56.8198 240.49L59.2398 238.07L69.0198 247.29L64.7998 249.27Z" fill="white"/>
<path d="M57.4797 255.93C57.4 255.94 57.3194 255.94 57.2397 255.93C56.4597 255.64 55.9597 254.14 55.7397 253.28C55.7287 253.25 55.7287 253.218 55.7397 253.189C55.7508 253.159 55.7721 253.135 55.7997 253.12C55.8217 253.1 55.8502 253.089 55.8797 253.089C55.9092 253.089 55.9377 253.1 55.9597 253.12C56.1997 253.25 58.2697 254.46 58.3097 255.31C58.3153 255.401 58.2971 255.493 58.2567 255.575C58.2164 255.658 58.1554 255.728 58.0797 255.78C57.9006 255.892 57.6905 255.945 57.4797 255.93ZM56.1397 253.53C56.4797 254.67 56.9197 255.43 57.3497 255.58C57.441 255.609 57.5381 255.615 57.6323 255.598C57.7265 255.58 57.815 255.54 57.8897 255.48C57.9997 255.4 58.0097 255.32 57.9997 255.27C57.9997 254.84 56.9997 254.05 56.1397 253.53V253.53Z" fill="#08B780"/>
<path d="M128.48 135.43C128.48 135.43 130.16 187.43 126.48 207.03C122.62 227.45 111 273.72 111 273.72L101.53 272.5C101.53 272.5 107.53 225.68 110.07 205.43C112.83 183.36 109.22 131.66 109.22 131.66L128.48 135.43Z" fill="#263238"/>
<path d="M113 274.3L99.4897 272.56L99.6497 269.35L114.35 269.99L113 274.3Z" fill="#08B780"/>
<path opacity="0.7" d="M113 274.3L99.4897 272.56L99.6497 269.35L114.35 269.99L113 274.3Z" fill="white"/>
<path d="M57.8 253.89C57.0991 253.86 56.4146 253.668 55.8 253.33C55.7793 253.315 55.7622 253.296 55.7501 253.273C55.738 253.25 55.7311 253.226 55.73 253.2C55.738 253.145 55.7666 253.095 55.81 253.06C55.89 253.06 57.49 252.18 58.42 252.52C58.5357 252.563 58.6405 252.631 58.7269 252.719C58.8133 252.807 58.8792 252.913 58.92 253.03C58.9776 253.141 58.9952 253.268 58.9697 253.39C58.9442 253.512 58.8771 253.622 58.78 253.7C58.4837 253.871 58.1387 253.938 57.8 253.89V253.89ZM56.22 253.21C56.9537 253.577 57.7958 253.666 58.59 253.46C58.65 253.41 58.71 253.33 58.59 253.14C58.5649 253.066 58.5229 252.998 58.4674 252.943C58.4119 252.887 58.3443 252.845 58.27 252.82C57.563 252.742 56.8488 252.878 56.22 253.21V253.21Z" fill="#08B780"/>
<path d="M111.45 282.74C110.757 282.729 110.067 282.652 109.39 282.51C109.362 282.497 109.339 282.477 109.322 282.451C109.306 282.425 109.297 282.395 109.297 282.365C109.297 282.335 109.306 282.305 109.322 282.279C109.339 282.253 109.362 282.233 109.39 282.22C109.7 282.06 112.39 280.72 113.15 281.17C113.225 281.211 113.288 281.272 113.332 281.346C113.376 281.42 113.399 281.504 113.4 281.59C113.415 281.73 113.396 281.872 113.343 282.002C113.291 282.133 113.207 282.249 113.1 282.34C112.612 282.659 112.029 282.801 111.45 282.74V282.74ZM109.91 282.29C111.35 282.53 112.43 282.46 112.84 282.11C112.912 282.05 112.968 281.972 113.002 281.885C113.037 281.798 113.05 281.703 113.04 281.61C113.041 281.575 113.033 281.54 113.015 281.51C112.997 281.48 112.971 281.456 112.94 281.44C112.52 281.2 111 281.77 109.91 282.29Z" fill="#08B780"/>
<path d="M109.42 282.51H109.33C109.306 282.495 109.287 282.474 109.275 282.45C109.263 282.425 109.257 282.397 109.26 282.37C109.26 282.25 109.59 279.37 111.18 279.58C111.6 279.58 111.72 279.83 111.75 280.01C111.87 280.75 110.28 282.18 109.48 282.53L109.42 282.51ZM111.05 279.85C110.11 279.85 109.73 281.4 109.61 282.08C110.45 281.59 111.51 280.47 111.45 280.02C111.45 280.02 111.45 279.88 111.14 279.86L111.05 279.85Z" fill="#08B780"/>
<path d="M102.38 128.72L100.8 130.83C100.69 131 100.87 131.22 101.17 131.28L128.81 136.63C129.05 136.63 129.27 136.63 129.3 136.46L129.93 134.15C129.917 134.049 129.871 133.956 129.798 133.885C129.725 133.815 129.631 133.77 129.53 133.76L102.84 128.6C102.76 128.576 102.675 128.575 102.593 128.596C102.512 128.617 102.439 128.66 102.38 128.72Z" fill="#08B780"/>
<path d="M105.47 132.38L104.76 132.24C104.62 132.24 104.52 132.12 104.55 132.04L105.39 129.04C105.39 128.96 105.56 128.91 105.69 128.93L106.41 129.08C106.55 129.08 106.65 129.19 106.63 129.28L105.79 132.28C105.75 132.38 105.62 132.38 105.47 132.38Z" fill="#263238"/>
<path d="M123.52 135.91L122.8 135.78C122.772 135.78 122.743 135.774 122.717 135.763C122.691 135.752 122.668 135.735 122.648 135.715C122.628 135.694 122.613 135.67 122.603 135.643C122.593 135.617 122.589 135.588 122.59 135.56L123.44 132.56C123.44 132.46 123.6 132.41 123.74 132.45L124.45 132.58C124.59 132.58 124.69 132.71 124.66 132.79L123.82 135.79C123.8 135.89 123.66 135.94 123.52 135.91Z" fill="#263238"/>
</g>
<defs>
<clipPath id="clip0_211_870">
<rect width="326.24" height="298.59" fill="white"/>
</clipPath>
</defs>
</svg>
