<svg width="327" height="296" viewBox="0 0 327 296" fill="none" xmlns="http://www.w3.org/2000/svg">
<g opacity="0.25">
<path opacity="0.25" d="M28.2568 5.85061C-56.2232 49.7806 72.6568 86.5306 103.857 117.701C126.247 140.061 113.447 182.651 148.607 210.391C185.557 239.501 243.527 244.631 274.197 233.101C320.537 215.731 328.907 118.701 259.997 77.2406C207.747 45.7906 163.027 80.8506 108.787 54.5806C74.6768 38.0606 74.2468 -18.0794 28.2568 5.85061Z" fill="white"/>
</g>
<g opacity="0.25">
<path opacity="0.25" d="M164.327 295.831C253.747 295.831 326.237 291.6 326.237 286.381C326.237 281.162 253.747 276.931 164.327 276.931C74.9066 276.931 2.41699 281.162 2.41699 286.381C2.41699 291.6 74.9066 295.831 164.327 295.831Z" fill="#F5F5F5"/>
</g>
<path d="M264.797 64.8105C266.857 58.1305 245.757 56.6105 240.677 68.6105C233.557 85.4205 243.947 94.8705 243.947 94.8705C249.997 91.6205 261.847 91.1405 268.317 93.2805L264.797 64.8105Z" fill="#263238"/>
<path d="M266.427 279.49L259.917 279.74L259.887 272.7L266.387 272.45L266.427 279.49Z" fill="#B55B52"/>
<path d="M259.657 278.391H267.037C267.307 278.391 267.547 278.571 267.617 278.831L269.217 284.681C269.357 285.161 269.087 285.671 268.607 285.811C268.517 285.841 268.417 285.851 268.327 285.851C265.747 285.801 264.497 285.651 261.257 285.651C259.257 285.651 254.117 285.861 251.357 285.861C248.597 285.861 248.097 283.141 249.217 282.901C254.227 281.791 257.087 280.271 258.627 278.821C258.907 278.541 259.277 278.391 259.657 278.391Z" fill="#08B780"/>
<path opacity="0.2" d="M259.887 272.7L259.897 276.33L266.417 276.36L266.397 272.45L259.887 272.7Z" fill="black"/>
<path d="M245.007 142.401C243.947 150.421 247.567 188.451 250.607 205.031C254.657 227.071 258.487 274.851 258.487 274.851L267.267 274.321C267.267 274.321 268.327 221.941 265.637 204.181C265.457 180.871 265.877 140.061 265.877 140.061L245.007 142.401Z" fill="#263238"/>
<path opacity="0.2" d="M265.677 165.461C265.677 159.551 261.297 154.881 260.207 166.171C259.517 173.361 262.307 185.421 265.597 193.771C265.587 184.671 265.627 174.491 265.677 165.461Z" fill="black"/>
<path d="M305.176 280.211L299.206 280.371L296.396 272.231L302.366 272.071L305.176 280.211Z" fill="#B55B52"/>
<path d="M305.037 278.391H297.667C297.447 278.371 297.267 278.541 297.247 278.751C297.247 278.781 297.247 278.8 297.247 278.83L297.787 284.681C297.907 285.331 298.457 285.821 299.117 285.851C301.677 285.801 302.877 285.65 306.117 285.65C308.117 285.65 310.737 285.861 313.487 285.861C316.237 285.861 315.737 283.14 314.537 282.9C309.137 281.79 308.287 280.271 306.187 278.821C305.857 278.561 305.457 278.411 305.037 278.391Z" fill="#08B780"/>
<path opacity="0.2" d="M296.396 272.241L297.846 276.431L303.936 276.601L302.376 272.071L296.396 272.241Z" fill="black"/>
<path d="M255.027 141.28C255.027 141.28 268.567 190.84 275.357 205.46C279.777 228.05 295.587 275.39 295.587 275.39L304.777 274.76C304.777 274.76 294.757 226.86 288.597 204.62C285.257 183.95 283.077 149.51 273.567 139.2L255.027 141.28Z" fill="#263238"/>
<path d="M241.907 105.54C241.727 109.72 241.377 113.77 240.877 117.87C240.377 121.97 239.787 126.03 238.987 130.1L238.677 131.63L238.507 132.47C238.407 132.96 238.247 133.44 238.027 133.9C237.707 134.62 237.207 135.24 236.587 135.72C235.807 136.29 234.867 136.58 233.897 136.56C233.267 136.54 232.657 136.4 232.077 136.16C231.677 135.99 231.297 135.79 230.937 135.56C229.887 134.85 228.927 134 228.087 133.05C227.327 132.21 226.637 131.38 225.977 130.54C223.457 127.2 221.227 123.67 219.297 119.96C218.837 119.08 219.187 118 220.067 117.54C220.807 117.16 221.717 117.33 222.257 117.96C224.827 121 227.427 124.11 230.147 126.85C230.817 127.53 231.497 128.19 232.187 128.78C232.757 129.31 233.387 129.761 234.057 130.141C234.167 130.181 234.267 130.23 234.277 130.22C234.287 130.2 234.227 130.161 233.937 130.141C233.487 130.131 233.037 130.27 232.677 130.54C232.447 130.7 232.257 130.91 232.117 131.16C232.067 131.27 232.117 131.16 232.117 131.16L232.217 130.47L232.427 128.99C232.957 125.06 233.367 121.081 233.757 117.111C234.137 113.141 234.437 109.11 234.697 105.19V105.141C234.807 103.151 236.507 101.63 238.497 101.74C240.487 101.85 242.007 103.55 241.897 105.54H241.907Z" fill="#B55B52"/>
<path d="M238.837 99.9605C232.637 102.99 233.607 111.02 233.607 111.02L243.517 118C243.517 118 247.137 109.27 246.387 105.09C245.617 100.8 243.437 97.7505 238.837 99.9605Z" fill="#08B780"/>
<path opacity="0.2" d="M237.817 106.701C239.267 104.411 241.767 104.961 244.677 106.781C245.357 107.371 245.917 108.071 246.347 108.851C245.727 111.991 244.797 115.071 243.587 118.041L236.597 113.121C236.317 110.901 236.747 108.651 237.817 106.701Z" fill="black"/>
<path d="M222.727 119.09L221.247 113.44L216.237 117.95C216.237 117.95 218.047 120.97 220.967 121.38L222.727 119.09Z" fill="#B55B52"/>
<path d="M217.407 111.13L216.387 112.14C214.777 113.72 214.707 116.28 216.227 117.94L221.237 113.43L219.837 111.37C219.337 110.64 218.347 110.46 217.617 110.95C217.537 111.01 217.467 111.07 217.407 111.13Z" fill="#B55B52"/>
<path d="M219.947 111.51C218.677 109.81 217.537 108.03 216.517 106.17C216.197 105.54 215.177 106.42 215.677 107.35C216.187 108.28 217.127 111.3 218.137 112.4C219.137 113.51 219.947 111.51 219.947 111.51Z" fill="#B55B52"/>
<path d="M236.547 104.55C238.307 120.68 243.567 131.93 245.007 142.4L273.517 139.21C271.907 128.73 271.087 121.87 273.087 102.47C273.437 99.1105 270.997 96.1105 267.647 95.7605C267.467 95.7405 267.287 95.7305 267.107 95.7305C265.367 95.7305 263.447 95.7305 261.517 95.8605C257.177 96.0305 252.847 96.5205 248.577 97.3105C245.567 97.9305 242.377 98.8004 240.087 99.4604C237.827 100.09 236.347 102.23 236.547 104.55Z" fill="#08B780"/>
<path d="M248.557 97.2805C248.557 97.2805 243.977 102.231 250.807 108.971C253.347 103.841 256.997 99.3405 261.507 95.8005L248.557 97.2805Z" fill="white"/>
<path d="M258.586 81.3906C258.236 85.6506 258.276 93.3706 261.496 95.8306C261.496 95.8306 254.376 99.7006 250.536 106.521C245.526 101.511 248.556 97.2806 248.556 97.2806C253.076 95.6106 252.576 92.2106 251.396 89.0706L258.586 81.3906Z" fill="#B55B52"/>
<path opacity="0.2" d="M257.807 82.2405C258.027 84.7205 257.707 87.2305 256.877 89.5805C256.297 91.2005 254.317 92.1305 252.207 92.5205C252.107 91.3405 251.827 90.1805 251.367 89.0805L257.807 82.2405Z" fill="black"/>
<path d="M264.637 75.4406C263.397 82.3406 263.017 85.2906 259.097 88.4406C253.187 93.1806 244.987 90.1506 244.137 83.0206C243.377 76.6006 245.537 66.3906 252.667 64.4206C257.747 62.9906 263.027 65.9606 264.457 71.0406C264.857 72.4706 264.917 73.9806 264.637 75.4406Z" fill="#B55B52"/>
<path d="M259.317 69.9006C257.647 73.5906 259.107 79.8506 264.407 79.4706C260.127 84.3606 261.137 95.0706 261.137 95.0706C263.817 95.2606 266.497 94.6806 268.857 93.4006C268.857 93.4006 267.187 83.2706 268.947 76.1606C270.387 70.3806 270.177 59.1706 257.647 61.6006C256.187 61.8806 246.667 64.3806 245.707 69.3806C245.627 69.8406 255.867 72.8106 259.317 69.9006Z" fill="#263238"/>
<path d="M266.207 79.3606C265.907 80.6806 265.097 81.8306 263.947 82.5506C262.417 83.4906 261.157 82.2506 261.167 80.5506C261.167 79.0106 262.007 76.6806 263.717 76.4206C264.977 76.2606 266.127 77.1406 266.287 78.4006C266.327 78.7206 266.297 79.0406 266.207 79.3606Z" fill="#B55B52"/>
<path opacity="0.2" d="M268.597 107.101C268.377 110.001 269.707 112.801 272.107 114.451C272.257 111.561 272.507 108.321 272.877 104.601C271.427 103.031 268.947 104.391 268.597 107.101Z" fill="black"/>
<path d="M273.716 137.481L275.286 139.881C275.416 140.071 275.206 140.301 274.866 140.331L244.966 143.671C244.706 143.671 244.486 143.591 244.446 143.441L243.896 140.931C243.896 140.751 244.076 140.581 244.346 140.551L273.226 137.311C273.416 137.281 273.596 137.351 273.716 137.481Z" fill="#263238"/>
<path d="M270.237 141.15L271.017 141.06C271.167 141.06 271.277 140.95 271.257 140.86L270.527 137.58C270.527 137.49 270.357 137.42 270.197 137.44L269.427 137.53C269.267 137.53 269.157 137.64 269.187 137.73L269.917 141C269.937 141.1 270.087 141.17 270.237 141.15Z" fill="#08B780"/>
<path d="M247.217 143.73L247.987 143.65C248.147 143.65 248.257 143.53 248.227 143.44L247.497 140.17C247.497 140.07 247.327 140.01 247.177 140.03L246.397 140.11C246.247 140.11 246.137 140.22 246.157 140.32L246.887 143.59C246.917 143.68 247.057 143.75 247.217 143.73Z" fill="#08B780"/>
<path d="M258.687 142.441L259.467 142.361C259.617 142.361 259.727 142.25 259.707 142.15L258.977 138.881C258.977 138.791 258.807 138.72 258.657 138.74L257.877 138.821C257.727 138.821 257.617 138.931 257.637 139.031L258.367 142.3C258.427 142.39 258.577 142.451 258.687 142.441Z" fill="#08B780"/>
<path d="M252.847 76.1404C252.777 76.7104 252.427 77.1304 252.067 77.0904C251.697 77.0504 251.447 76.5504 251.517 75.9904C251.587 75.4304 251.937 75.0004 252.307 75.0404C252.677 75.0804 252.937 75.5804 252.847 76.1404Z" fill="#263238"/>
<path d="M246.477 75.3904C246.407 75.9604 246.057 76.3804 245.697 76.3404C245.337 76.3004 245.077 75.8004 245.147 75.2404C245.217 74.6804 245.567 74.2504 245.987 74.2904C246.387 74.3304 246.537 74.8304 246.477 75.3904Z" fill="#263238"/>
<path d="M246.087 74.3405L244.767 73.7905C244.767 73.7905 245.327 74.9105 246.087 74.3405Z" fill="#263238"/>
<path d="M248.046 76.5806C247.386 77.8006 246.566 78.9206 245.606 79.9206C246.136 80.4106 246.866 80.6306 247.576 80.5306L248.046 76.5806Z" fill="#A02724"/>
<path d="M249.167 82.5304C249.117 82.4904 249.087 82.4304 249.087 82.3604C249.097 82.2704 249.187 82.2004 249.277 82.2204C250.697 82.4704 252.147 82.0204 253.177 81.0304C253.237 80.9604 253.347 80.9604 253.417 81.0204C253.487 81.0804 253.487 81.1904 253.427 81.2604C252.327 82.3404 250.777 82.8304 249.247 82.5604L249.167 82.5304Z" fill="#263238"/>
<path d="M255.907 73.1705C255.857 73.1405 255.817 73.1005 255.787 73.0505C255.377 72.3005 254.627 71.8005 253.787 71.6905C253.607 71.6905 253.457 71.5405 253.457 71.3605C253.457 71.1805 253.607 71.0305 253.787 71.0305C254.857 71.1405 255.807 71.7705 256.337 72.7005C256.427 72.8605 256.377 73.0605 256.217 73.1605C256.127 73.2005 256.007 73.2105 255.907 73.1705Z" fill="#263238"/>
<path d="M244.787 72.0705L244.736 72.0305C244.606 71.9005 244.606 71.7005 244.726 71.5705C244.726 71.5705 244.726 71.5705 244.736 71.5605C245.416 70.7205 246.457 70.2705 247.537 70.3305C247.717 70.3505 247.856 70.5205 247.826 70.7105C247.806 70.8905 247.636 71.0305 247.446 71.0005C246.596 70.9505 245.766 71.3205 245.246 71.9905C245.136 72.1305 244.937 72.1605 244.787 72.0705Z" fill="#263238"/>
<path d="M272.756 100.121C275.216 102.631 277.536 105.131 279.816 107.781C280.956 109.101 282.096 110.431 283.156 111.831C284.306 113.271 285.376 114.791 286.356 116.361C286.666 116.851 286.946 117.361 287.196 117.881C287.376 118.281 287.516 118.701 287.616 119.131C287.656 119.301 287.686 119.481 287.696 119.661V119.991C287.706 120.131 287.706 120.281 287.696 120.421V120.651V120.751V120.831L287.656 121.001C287.436 121.901 287.276 122.811 286.996 123.701C286.496 125.501 285.836 127.261 285.036 128.951C284.206 130.671 283.186 132.281 281.986 133.761C281.366 134.511 280.696 135.211 279.966 135.851C279.596 136.181 279.226 136.481 278.816 136.791C278.616 136.931 278.396 137.071 278.186 137.211C277.966 137.341 277.766 137.461 277.416 137.641L275.606 134.561C275.606 134.521 275.786 134.371 275.886 134.251L276.236 133.861C276.466 133.581 276.696 133.291 276.916 133.021C277.346 132.401 277.736 131.761 278.096 131.101C278.806 129.761 279.396 128.371 279.866 126.921C280.076 126.171 280.306 125.441 280.466 124.671C280.626 123.901 280.796 123.151 280.926 122.381C281.056 121.611 281.146 120.821 281.256 120.041V119.891V119.821V119.971C281.256 120.061 281.256 120.191 281.256 120.251C281.256 120.301 281.256 120.361 281.256 120.411V120.621C281.256 120.791 281.256 120.741 281.256 120.671C281.256 120.601 280.986 120.241 280.796 119.961C279.956 118.821 278.906 117.521 277.836 116.291C276.766 115.061 275.646 113.781 274.496 112.561L267.606 105.161L272.756 100.121Z" fill="#B55B52"/>
<path d="M279.207 136.511L274.197 141.161L270.947 135.871C270.947 135.871 274.067 133.621 276.877 134.471L279.207 136.511Z" fill="#B55B52"/>
<path d="M270.377 142.141L268.707 140.391C268.047 139.691 268.067 138.601 268.757 137.931L270.897 135.831L274.137 141.161L272.747 142.301C272.027 142.861 271.007 142.791 270.377 142.141Z" fill="#B55B52"/>
<path d="M261.457 99.8905C261.077 102.87 269.017 111.58 269.017 111.58L276.447 102.28C276.447 102.28 272.977 97.4205 270.337 96.3205C266.087 94.5205 261.897 96.4905 261.457 99.8905Z" fill="#08B780"/>
<path d="M252.487 75.0905L251.167 74.5405C251.167 74.5405 251.737 75.6805 252.487 75.0905Z" fill="#263238"/>
<path d="M62.9669 69.2405C59.8869 72.6605 56.0569 82.8905 67.9269 80.8405C79.8069 78.7905 62.9669 69.2405 62.9669 69.2405Z" fill="#263238"/>
<path d="M66.7466 59.8305C67.4766 55.2905 59.1666 44.8605 55.8866 51.3005C51.8766 59.0505 66.7466 59.8305 66.7466 59.8305Z" fill="#263238"/>
<path d="M66.7768 62.5906C70.5468 59.9506 72.2268 46.7206 65.3068 48.8406C56.9668 51.3906 66.7768 62.5906 66.7768 62.5906Z" fill="#263238"/>
<path d="M85.8369 103.1C85.7569 103.8 85.6969 104.68 85.6369 105.48C85.5769 106.28 85.5469 107.15 85.5169 107.99C85.5169 109.66 85.4169 111.33 85.4669 112.96C85.5369 116.26 85.8369 119.55 86.3569 122.81C86.4769 123.65 86.6569 124.41 86.8069 125.21L86.8569 125.49C86.8569 125.52 86.8569 125.55 86.8569 125.58C86.8569 125.58 86.8569 125.58 86.8569 125.66C86.8569 125.74 87.2569 125.94 87.8269 125.99C88.4869 126.07 89.1569 126.07 89.8269 125.99C93.0369 125.47 96.1769 124.58 99.1769 123.34L100.797 126.22C100.017 126.78 99.2769 127.25 98.4969 127.71C97.7169 128.18 96.9369 128.63 96.1069 129.03C94.4269 129.9 92.6469 130.59 90.8169 131.09C89.7769 131.37 88.7169 131.52 87.6469 131.55C86.2469 131.59 84.8669 131.23 83.6569 130.52C82.9269 130.07 82.3169 129.47 81.8469 128.75C81.6269 128.41 81.4369 128.06 81.2869 127.68C81.2069 127.51 81.1469 127.33 81.0869 127.15L81.0069 126.88L80.9669 126.71C80.7369 125.82 80.4769 124.93 80.2869 124.04C79.4869 120.47 79.0069 116.84 78.8569 113.18C78.7669 111.37 78.7269 109.56 78.7969 107.75C78.7969 106.84 78.8769 105.94 78.9369 105.03C78.9969 104.12 79.0869 103.25 79.2169 102.23L85.8369 103.1Z" fill="#FFB573"/>
<path d="M84.9968 95.2306C87.5068 96.3706 87.5068 107.601 87.5068 107.601L76.1668 112.741C76.1668 112.741 74.2268 99.0906 76.7768 96.5206C79.3168 93.9606 81.3268 93.5806 84.9968 95.2306Z" fill="#263238"/>
<path opacity="0.2" d="M84.3665 97.6306L86.0765 108.271L79.9165 111.051L84.3665 97.6306Z" fill="black"/>
<path d="M97.7266 124.741L102.457 119.551L103.947 125.261C103.947 125.261 100.917 128.161 98.3366 127.321L97.7266 124.741Z" fill="#FFB573"/>
<path d="M105.507 119.391L106.207 122.221C106.317 122.671 106.177 123.151 105.837 123.471L103.937 125.271L102.447 119.561L103.367 118.721C103.897 118.241 104.717 118.281 105.197 118.811C105.357 118.981 105.457 119.171 105.507 119.391Z" fill="#FFB573"/>
<path d="M86.4266 97.8207C86.1066 101.641 84.1966 110.941 76.4066 133.491L50.2666 128.971C52.4266 118.951 53.5666 112.551 52.5666 92.5806C52.4666 90.7706 53.8666 89.2207 55.6766 89.1207C55.7566 89.1207 55.8266 89.1107 55.9066 89.1207C58.5266 89.1407 61.1466 89.3107 63.7466 89.6107C67.7466 90.0007 71.7066 90.6707 75.6166 91.6207C78.8066 92.4607 82.2266 93.6707 84.2866 94.4307C85.6866 94.9307 86.5666 96.3307 86.4266 97.8207Z" fill="#263238"/>
<path opacity="0.2" d="M53.0566 98.1606C55.3166 99.1606 57.0666 102.121 55.9766 106.831C55.4566 108.971 54.3466 110.911 52.7666 112.441C52.9866 108.711 53.0166 104.341 52.8466 98.7106L53.0566 98.1606Z" fill="black"/>
<path d="M67.2168 76.4404C67.3068 80.3904 66.8468 87.5104 63.7368 89.6004C63.7368 89.6004 65.9968 92.4304 72.3168 97.3104C78.3468 93.9704 75.6068 91.6504 75.6068 91.6504C71.5268 89.9004 72.1768 86.7604 73.4268 83.9304L67.2168 76.4404Z" fill="#FFB573"/>
<path opacity="0.2" d="M69.7569 79.5005L73.4269 83.9205C73.1269 84.5805 72.8769 85.2605 72.6969 85.9705C71.1069 85.4505 68.7869 83.6205 68.7469 81.7905C68.7269 80.9305 69.5469 79.8705 69.7569 79.5005Z" fill="black"/>
<path d="M64.1167 69.1706C64.4767 75.6406 64.4867 78.3606 67.7367 81.7006C72.6267 86.7106 80.4867 84.8706 82.0767 78.4306C83.5067 72.5806 82.6767 63.0106 76.3667 60.4006C71.8667 58.5106 66.6767 60.6306 64.7867 65.1306C64.2467 66.4006 64.0267 67.7906 64.1167 69.1706Z" fill="#FFB573"/>
<path d="M64.0667 73.5006C66.8567 73.6406 70.0567 68.2606 68.7567 65.8306C70.2167 65.5006 76.4467 66.2106 76.4267 63.9106C79.2367 65.8706 85.4168 65.9706 86.4468 63.3106C87.4768 60.6506 85.1367 58.1706 82.0967 59.1306C79.8967 53.4706 69.3367 52.3006 65.3967 57.6806C60.3967 57.5606 49.5467 65.7306 64.0667 73.5006Z" fill="#263238"/>
<path d="M75.3066 70.9505C75.3066 71.4805 75.5766 71.9005 75.9266 71.9005C76.2766 71.9005 76.5466 71.4805 76.5566 70.9605C76.5666 70.4305 76.2766 70.0005 75.9366 70.0005C75.5966 70.0005 75.3066 70.4305 75.3066 70.9505Z" fill="#263238"/>
<path d="M81.2568 70.9904C81.2568 71.5204 81.5368 71.9405 81.8768 71.9505C82.2168 71.9605 82.5068 71.5204 82.5068 71.0004C82.5068 70.4804 82.2268 70.0505 81.8868 70.0405C81.5468 70.0305 81.2668 70.4604 81.2568 70.9904Z" fill="#263238"/>
<path d="M81.7368 70.0705L82.9968 69.7104C82.9968 69.7104 82.3468 70.7405 81.7368 70.0705Z" fill="#263238"/>
<path d="M79.4167 71.9207C79.8767 73.1107 80.5067 74.2407 81.2667 75.2607C80.7167 75.6407 80.0367 75.7706 79.3867 75.6006L79.4167 71.9207Z" fill="#ED893E"/>
<path d="M76.3269 77.6906C76.5869 77.7306 76.8469 77.7506 77.1069 77.7506C77.1869 77.7506 77.2569 77.6906 77.2669 77.6106V77.6006C77.2669 77.5106 77.1969 77.4506 77.1069 77.4406C75.7769 77.4606 74.5169 76.8405 73.7169 75.7705C73.6769 75.7005 73.5869 75.6705 73.5169 75.7105L73.5069 75.7206C73.4469 75.7806 73.4469 75.8806 73.5069 75.9406C74.1769 76.8706 75.1869 77.5006 76.3269 77.6906Z" fill="#263238"/>
<path d="M75.4569 78.5705C75.6769 78.7005 75.9069 78.8205 76.1469 78.9105C76.2269 78.9405 76.3069 78.9105 76.3469 78.8305C76.3469 78.8305 76.3469 78.8305 76.3469 78.8205C76.3769 78.7405 76.3469 78.6605 76.2669 78.6205C76.2669 78.6205 76.2669 78.6205 76.2569 78.6205C75.0269 78.1405 74.0969 77.1005 73.7469 75.8205C73.7269 75.7405 73.6469 75.6905 73.5669 75.7005C73.5669 75.7005 73.5669 75.7005 73.5569 75.7005C73.4769 75.7205 73.4169 75.7905 73.4269 75.8805C73.7369 77.0205 74.4569 77.9805 75.4569 78.5705Z" fill="#263238"/>
<path d="M62.1367 74.2104C62.4967 75.4104 63.3167 76.4204 64.4067 77.0204C65.8667 77.8004 66.9667 76.5805 66.8667 75.0105C66.7767 73.6005 65.8967 71.4905 64.2767 71.3505C63.1067 71.2705 62.0867 72.1604 62.0167 73.3404C61.9967 73.6404 62.0367 73.9304 62.1367 74.2104Z" fill="#FFB573"/>
<path d="M72.6066 68.0205C72.7266 68.0805 72.8766 68.0505 72.9666 67.9505C73.9766 66.9405 75.7966 67.2305 75.8166 67.2305C75.9866 67.2605 76.1466 67.1505 76.1766 66.9805C76.2066 66.8105 76.0966 66.6505 75.9266 66.6205H75.9166C75.8366 66.6205 73.7666 66.2805 72.5366 67.5105C72.4166 67.6305 72.4166 67.8205 72.5266 67.9505C72.5266 67.9505 72.5266 67.9505 72.5366 67.9605L72.6066 68.0205Z" fill="#263238"/>
<path d="M83.2666 68.1304C83.3766 68.1404 83.4766 68.1004 83.5466 68.0204C83.6566 67.8904 83.6366 67.6904 83.5066 67.5904C82.7566 66.9404 81.7366 66.6804 80.7666 66.9104C80.6066 66.9604 80.5166 67.1304 80.5666 67.2904C80.6066 67.4504 80.7766 67.5504 80.9366 67.5004C80.9466 67.5004 80.9466 67.5004 80.9566 67.5004C81.7266 67.3204 82.5366 67.5304 83.1166 68.0604C83.1566 68.1004 83.2166 68.1204 83.2666 68.1304Z" fill="#263238"/>
<path d="M73.9068 278.13H80.4368L80.0168 263.01H73.4868L73.9068 278.13Z" fill="#FFB573"/>
<path d="M80.8169 277.37H73.4769C73.2169 277.36 72.9969 277.56 72.9869 277.82L72.4469 283.621C72.4269 284.241 72.9069 284.76 73.5269 284.78C73.5369 284.78 73.5469 284.78 73.5569 284.78C76.1169 284.74 77.3269 284.59 80.5669 284.59C82.5469 284.59 86.6669 284.79 89.3969 284.79C92.1369 284.79 92.1569 282.08 90.9869 281.83C85.8169 280.73 83.7269 279.22 81.9269 277.76C81.6169 277.52 81.2269 277.38 80.8169 277.37Z" fill="#263238"/>
<g opacity="0.2">
<path opacity="0.2" d="M80.0168 263.01L80.2368 270.81H73.7068L73.4868 263.01H80.0168Z" fill="black"/>
</g>
<path d="M76.4166 133.48C76.4166 133.48 80.4966 174.26 81.7566 194.15C83.0766 214.83 81.3466 269.31 81.3466 269.31H72.5166C72.5166 269.31 67.0666 207.95 67.0666 195.71C63.5966 173.52 54.0166 150.54 57.2666 130.19L76.4166 133.48Z" fill="#08B780"/>
<path opacity="0.6" d="M76.4166 133.48C76.4166 133.48 80.4966 174.26 81.7566 194.15C83.0766 214.83 81.3466 269.31 81.3466 269.31H72.5166C72.5166 269.31 67.0666 207.95 67.0666 195.71C63.5966 173.52 54.0166 150.54 57.2666 130.19L76.4166 133.48Z" fill="white"/>
<path opacity="0.2" d="M62.5469 149.631C60.6869 150.131 59.0369 151.191 57.8169 152.681C59.1569 161.141 61.4369 169.821 63.5169 178.501C65.0169 169.061 64.1169 153.161 62.5469 149.631Z" fill="#08B780"/>
<path d="M71.7569 269.621H82.1268L82.8869 266.311L71.2769 265.911L71.7569 269.621Z" fill="#263238"/>
<path d="M83.3267 278.52C83.8867 278.57 84.4467 278.43 84.9167 278.12C85.1267 277.93 85.2367 277.65 85.1967 277.37C85.1867 277.2 85.0867 277.04 84.9367 276.95C84.0967 276.52 81.5267 277.84 81.2367 277.99C81.1767 278.02 81.1467 278.08 81.1567 278.15C81.1667 278.21 81.2067 278.27 81.2767 278.28C81.9467 278.42 82.6367 278.5 83.3267 278.52ZM84.4967 277.16C84.5967 277.15 84.6967 277.17 84.7767 277.22C84.8467 277.25 84.8867 277.31 84.8867 277.39C84.9167 277.57 84.8467 277.76 84.7067 277.88C84.3167 278.24 83.2367 278.3 81.7967 278.06C82.6367 277.61 83.5367 277.3 84.4767 277.16H84.4967Z" fill="#08B780"/>
<path d="M81.2767 278.28H81.3367C82.1167 277.93 83.6567 276.52 83.5367 275.77C83.5367 275.59 83.3767 275.38 82.9567 275.34C82.6567 275.31 82.3567 275.41 82.1167 275.61C81.2767 276.29 81.1467 278.05 81.1367 278.12C81.1367 278.18 81.1567 278.23 81.2067 278.26C81.2367 278.27 81.2567 278.28 81.2767 278.28ZM82.8367 275.64H82.9267C83.2067 275.64 83.2267 275.78 83.2367 275.82C83.3167 276.27 82.2667 277.37 81.4767 277.86C81.5367 277.12 81.8267 276.41 82.3167 275.84C82.4567 275.71 82.6467 275.64 82.8367 275.64Z" fill="#08B780"/>
<path d="M19.7866 267.881L25.8266 270.371L31.9966 256.551L25.9666 254.071L19.7866 267.881Z" fill="#FFB573"/>
<path d="M26.2967 270.321L19.9167 266.701C19.6967 266.571 19.4067 266.621 19.2467 266.831L15.6767 271.431C15.3367 271.901 15.4467 272.561 15.9267 272.901C15.9567 272.921 15.9867 272.941 16.0267 272.961C18.2767 274.181 19.4167 274.631 22.2267 276.251C23.9467 277.241 27.4167 279.441 29.7967 280.791C32.1767 282.141 33.6467 279.861 32.7767 279.121C28.8667 275.631 27.8667 273.321 27.0767 271.211C26.9467 270.831 26.6667 270.511 26.2967 270.321Z" fill="#263238"/>
<g opacity="0.2">
<path opacity="0.2" d="M31.9968 256.561L28.8168 263.681L22.7769 261.191L25.9568 254.071L31.9968 256.561Z" fill="black"/>
</g>
<path d="M69.0766 132.211C69.0766 132.211 58.4066 179.071 56.5966 198.911C52.0666 217.341 30.7066 262.791 30.7066 262.791L22.5366 259.451C22.5366 259.451 35.3366 210.891 42.3666 197.511C43.0366 175.331 42.9166 148.611 49.9666 128.911L69.0766 132.211Z" fill="#08B780"/>
<path opacity="0.6" d="M69.0766 132.211C69.0766 132.211 58.4066 179.071 56.5966 198.911C52.0666 217.341 30.7066 262.791 30.7066 262.791L22.5366 259.451C22.5366 259.451 35.3366 210.891 42.3666 197.511C43.0366 175.331 42.9166 148.611 49.9666 128.911L69.0766 132.211Z" fill="white"/>
<path d="M21.6865 259.441L31.2565 263.391L33.2265 260.631L22.6465 255.831L21.6865 259.441Z" fill="#263238"/>
<path d="M27.8667 272.491C28.3267 272.811 28.8867 272.961 29.4467 272.921C29.7267 272.861 29.9567 272.671 30.0567 272.401C30.1367 272.251 30.1367 272.071 30.0567 271.921C29.5767 271.141 26.6567 271.011 26.3367 271.001C26.2667 270.991 26.2067 271.031 26.1867 271.091C26.1467 271.141 26.1467 271.211 26.1867 271.271C26.7067 271.731 27.2767 272.131 27.8667 272.491ZM29.5367 271.891C29.6267 271.941 29.7067 272.001 29.7667 272.081C29.8067 272.141 29.8067 272.221 29.7667 272.281C29.6967 272.451 29.5567 272.581 29.3767 272.621C28.8467 272.731 27.8867 272.251 26.7467 271.331C27.7067 271.361 28.6467 271.551 29.5367 271.891Z" fill="#08B780"/>
<path d="M26.2268 271.291C26.2268 271.291 26.2268 271.291 26.2868 271.291C27.1268 271.371 29.1768 270.901 29.4368 270.201C29.4968 270.031 29.4968 269.78 29.1468 269.53C28.9068 269.36 28.6068 269.291 28.3068 269.351C27.2568 269.531 26.2568 271.02 26.2168 271.02C26.1868 271.07 26.1868 271.121 26.2168 271.171C26.1968 271.201 26.2068 271.251 26.2268 271.291ZM28.8768 269.761C28.9068 269.771 28.9368 269.79 28.9568 269.81C29.1868 269.97 29.1468 270.081 29.1368 270.111C28.9768 270.541 27.5268 270.951 26.6268 271.011C27.0468 270.391 27.6468 269.921 28.3468 269.671C28.5368 269.641 28.7168 269.671 28.8768 269.761Z" fill="#08B780"/>
<path d="M75.8066 70.0307L77.0666 69.6807C77.0766 69.6807 76.3966 70.6507 75.8066 70.0307Z" fill="#263238"/>
<path d="M50.1565 127.371L49.0865 129.591C48.9565 129.761 49.1465 129.971 49.4465 130.031L76.3465 134.671C76.5765 134.711 76.7965 134.671 76.8365 134.481L77.4765 132.181C77.5165 132.021 77.3365 131.851 77.0765 131.801L50.6165 127.231C50.4565 127.201 50.2765 127.251 50.1565 127.371Z" fill="#263238"/>
<path d="M53.2665 130.951L52.5565 130.831C52.4165 130.831 52.3265 130.711 52.3465 130.621L53.1865 127.641C53.1865 127.561 53.3465 127.511 53.4865 127.531L54.1965 127.651C54.3365 127.651 54.4265 127.771 54.4065 127.861L53.5665 130.841C53.5665 130.931 53.4265 130.981 53.2665 130.951Z" fill="#08B780"/>
<g opacity="0.6">
<path opacity="0.6" d="M53.2665 130.951L52.5565 130.831C52.4165 130.831 52.3265 130.711 52.3465 130.621L53.1865 127.641C53.1865 127.561 53.3465 127.511 53.4865 127.531L54.1965 127.651C54.3365 127.651 54.4265 127.771 54.4065 127.861L53.5665 130.841C53.5665 130.931 53.4265 130.981 53.2665 130.951Z" fill="white"/>
</g>
<path d="M74.3068 134.591L73.6068 134.461C73.4668 134.461 73.3668 134.341 73.3868 134.261L74.2268 131.281C74.2268 131.191 74.3868 131.141 74.5268 131.161L75.2368 131.291C75.3768 131.291 75.4668 131.411 75.4468 131.491L74.6068 134.471C74.5968 134.561 74.4468 134.611 74.3068 134.591Z" fill="#08B780"/>
<g opacity="0.6">
<path opacity="0.6" d="M74.3068 134.591L73.6068 134.461C73.4668 134.461 73.3668 134.341 73.3868 134.261L74.2268 131.281C74.2268 131.191 74.3868 131.141 74.5268 131.161L75.2368 131.291C75.3768 131.291 75.4668 131.411 75.4468 131.491L74.6068 134.471C74.5968 134.561 74.4468 134.611 74.3068 134.591Z" fill="white"/>
</g>
<path d="M63.8466 132.781L63.1366 132.651C62.9966 132.651 62.9066 132.531 62.9266 132.451L63.7666 129.461C63.7666 129.381 63.9266 129.331 64.0666 129.351L64.7766 129.471C64.9066 129.471 65.0066 129.591 64.9866 129.681L64.1466 132.661C64.1166 132.751 63.9866 132.801 63.8466 132.781Z" fill="#08B780"/>
<g opacity="0.6">
<path opacity="0.6" d="M63.8466 132.781L63.1366 132.651C62.9966 132.651 62.9066 132.531 62.9266 132.451L63.7666 129.461C63.7666 129.381 63.9266 129.331 64.0666 129.351L64.7766 129.471C64.9066 129.471 65.0066 129.591 64.9866 129.681L64.1466 132.661C64.1166 132.751 63.9866 132.801 63.8466 132.781Z" fill="white"/>
</g>
<path d="M47.3065 132.471L52.1965 137.551L45.5765 137.991C45.5765 137.991 43.3165 134.461 44.6365 132.091L47.3065 132.471Z" fill="#FFB573"/>
<path d="M54.3165 97.9405C52.4265 100.951 50.4765 103.941 48.5165 106.901C46.5665 109.861 44.5665 112.871 42.7765 115.741L42.4965 116.191C42.4965 116.191 42.4965 116.241 42.4265 116.301C42.3565 116.491 42.3165 116.691 42.2965 116.891C42.2465 117.551 42.2765 118.221 42.3865 118.871C42.6665 120.471 43.0765 122.041 43.6265 123.561C44.1565 125.161 44.7865 126.771 45.4765 128.371C46.1665 129.971 46.8865 131.581 47.6165 133.151L44.8065 134.901C42.5665 131.961 40.6065 128.811 38.9565 125.501C38.0765 123.741 37.3765 121.901 36.8665 120.001C36.5765 118.911 36.4265 117.791 36.4165 116.661C36.4165 115.971 36.5065 115.281 36.6765 114.611C36.7865 114.221 36.9265 113.841 37.0965 113.471L37.2965 113.071L37.4665 112.741C38.3565 111.071 39.2365 109.521 40.1565 107.951C41.0765 106.381 41.9965 104.861 42.9265 103.331C44.7965 100.271 46.6965 97.2505 48.6965 94.2705L54.3165 97.9405Z" fill="#FFB573"/>
<path d="M56.0869 89.2607C49.6769 88.1607 44.8569 98.0507 44.8569 98.0507L52.3769 107.301C52.3769 107.301 57.1969 101.911 58.2669 98.4707C59.3969 94.8807 59.2069 89.8007 56.0869 89.2607Z" fill="#263238"/>
<path d="M52.7667 143.001L47.1967 143.071L45.5767 137.991L52.1967 137.541L52.7667 143.001Z" fill="#FFB573"/>
<path d="M272.987 23.7007C281.887 23.7107 289.097 30.9307 289.087 39.8307V39.8407V162.461C289.077 171.351 281.877 178.551 272.987 178.561H232.157C225.237 178.561 219.627 184.171 219.627 191.091V202.961L194.647 181.571C192.377 179.631 189.487 178.561 186.497 178.561H55.6666C46.7766 178.551 39.5766 171.351 39.5666 162.461V39.8407C39.5766 30.9507 46.7766 23.7507 55.6666 23.7407H272.987V23.7007ZM272.987 11.2107H55.6666C39.8766 11.2607 27.0866 24.0507 27.0366 39.8407V162.461C27.0866 178.251 39.8766 191.041 55.6666 191.091H186.497L232.147 230.191V191.091H272.977C288.767 191.041 301.557 178.251 301.607 162.461V39.8407C301.567 24.0507 288.777 11.2607 272.987 11.2107Z" fill="#08B780"/>
<path d="M155.027 280.621C155.797 280.621 156.517 280.521 156.757 280.181C156.887 279.991 156.887 279.751 156.757 279.561C156.657 279.391 156.487 279.281 156.297 279.231C155.307 278.961 153.277 280.14 153.187 280.19C153.137 280.22 153.117 280.281 153.127 280.341C153.137 280.401 153.187 280.441 153.247 280.451C153.827 280.571 154.427 280.621 155.027 280.621ZM155.927 279.481C156.017 279.471 156.107 279.471 156.207 279.481C156.317 279.511 156.417 279.581 156.487 279.681C156.597 279.861 156.567 279.941 156.527 279.991C156.267 280.371 154.767 280.381 153.657 280.231C154.367 279.841 155.137 279.591 155.937 279.501V279.481H155.927Z" fill="#08B780"/>
<path d="M153.227 280.461H153.287C153.987 280.141 155.357 278.861 155.227 278.191C155.227 278.031 155.077 277.831 154.697 277.801C154.417 277.771 154.137 277.851 153.917 278.031C153.187 278.661 153.077 280.251 153.077 280.321C153.077 280.371 153.107 280.421 153.147 280.451C153.177 280.471 153.197 280.471 153.227 280.461ZM154.587 278.061H154.677C154.927 278.061 154.947 278.191 154.957 278.221C155.037 278.621 154.117 279.631 153.397 280.071C153.437 279.401 153.687 278.761 154.117 278.241C154.237 278.121 154.407 278.061 154.587 278.061Z" fill="#08B780"/>
<path d="M146.687 280.321H152.627L152.707 266.581H146.767L146.687 280.321Z" fill="#CE7A63"/>
<path d="M152.567 279.641H146.077C145.837 279.641 145.637 279.811 145.597 280.041L144.617 285.351C144.527 285.841 144.857 286.311 145.347 286.401C145.397 286.411 145.457 286.411 145.507 286.411C147.847 286.371 151.217 286.231 154.157 286.231C157.587 286.231 158.017 286.421 162.047 286.421C164.487 286.421 165.057 283.961 164.037 283.731C159.357 282.711 158.117 282.601 154.017 280.131C153.597 279.841 153.087 279.661 152.567 279.641Z" fill="#263238"/>
<path opacity="0.2" d="M152.707 266.581L152.667 273.671H146.727L146.767 266.581H152.707Z" fill="black"/>
<path d="M107.397 278.58C107.447 277.95 107.247 277.33 106.857 276.83C106.677 276.7 106.427 276.7 106.237 276.83C106.077 276.93 105.967 277.09 105.937 277.27C105.717 278.26 107.017 280.33 107.077 280.43C107.107 280.48 107.167 280.51 107.227 280.5C107.287 280.49 107.327 280.45 107.337 280.39C107.397 279.79 107.417 279.18 107.397 278.58ZM106.187 277.62C106.177 277.53 106.177 277.44 106.187 277.35C106.197 277.24 106.267 277.14 106.367 277.07C106.547 276.97 106.627 277.01 106.677 277.07C107.077 277.35 107.167 278.85 107.077 279.95C106.637 279.25 106.337 278.45 106.187 277.62Z" fill="#08B780"/>
<path d="M107.327 280.341C107.327 280.321 107.327 280.301 107.327 280.281C106.967 279.561 105.607 278.131 104.937 278.231C104.777 278.231 104.587 278.361 104.567 278.761C104.557 279.051 104.657 279.321 104.847 279.541C105.517 280.081 106.327 280.411 107.187 280.481C107.237 280.491 107.287 280.461 107.317 280.421C107.327 280.391 107.337 280.361 107.327 280.341ZM104.817 278.871V278.791C104.817 278.541 104.927 278.521 104.957 278.521C105.357 278.451 106.417 279.421 106.907 280.191C106.217 280.121 105.557 279.841 105.027 279.401C104.907 279.261 104.847 279.091 104.837 278.911L104.817 278.871Z" fill="#08B780"/>
<path d="M107.237 280.401L113.057 280.811L115.447 266.961L109.637 266.551L107.237 280.401Z" fill="#CE7A63"/>
<path d="M107.177 279.081L113.597 278.511C113.847 278.491 114.077 278.641 114.157 278.871L116.107 284.021C116.267 284.451 116.057 284.931 115.627 285.101C115.557 285.121 115.497 285.141 115.427 285.151C113.107 285.321 109.727 285.481 106.817 285.731C103.417 286.031 105.627 286.021 101.637 286.381C99.227 286.601 98.187 284.201 99.127 283.871C103.567 282.451 104.327 281.471 105.807 279.641C106.177 279.281 106.667 279.081 107.177 279.081Z" fill="#263238"/>
<path opacity="0.2" d="M115.447 266.971L114.217 274.111L108.397 273.701L109.627 266.551L115.447 266.971Z" fill="black"/>
<path d="M154.837 129.321C154.837 129.321 143.977 174.921 139.877 191.851C135.347 210.381 117.567 271.871 117.567 271.871L106.957 269.571C106.957 269.571 118.477 216.741 123.017 190.881C126.497 171.031 134.367 129.311 134.367 129.311L154.837 129.321Z" fill="#263238"/>
<path d="M119.237 268.651L118.457 272.731L105.787 271.381L105.607 267.641L119.237 268.651Z" fill="#08B780"/>
<path opacity="0.3" d="M148.587 150.45C141.067 151.44 139.707 177.78 139.537 193.23L139.877 191.84C142.127 182.6 146.387 164.79 149.787 150.54C149.397 150.42 148.987 150.39 148.587 150.45Z" fill="black"/>
<path d="M166.107 129.321C166.107 129.321 163.207 173.731 161.927 191.811C160.587 210.621 155.247 272.291 155.247 272.291H145.117C145.117 272.291 144.057 211.741 143.767 193.241C143.437 173.081 145.217 129.321 145.217 129.321H166.107Z" fill="#263238"/>
<path d="M156.607 268.291C156.647 268.291 156.197 272.471 156.197 272.471H143.967L143.487 268.741L156.607 268.291Z" fill="#08B780"/>
<path d="M138.027 86.6006C136.407 89.8806 134.757 93.3306 133.247 96.7206C131.727 100.111 130.237 103.541 129.067 106.971L128.617 108.251L128.217 109.521L128.037 110.101C128.047 109.961 128.047 109.831 128.037 109.691C127.977 109.131 127.707 108.611 127.287 108.241C126.957 108.021 126.957 108.111 127.077 108.181C127.307 108.291 127.557 108.371 127.807 108.421C128.557 108.581 129.317 108.681 130.077 108.731C133.737 108.841 137.387 108.731 141.037 108.401H141.137C142.377 108.311 143.457 109.231 143.547 110.471C143.627 111.461 143.037 112.391 142.097 112.741C138.307 114.271 134.327 115.301 130.277 115.801C129.107 115.921 127.937 115.931 126.767 115.831C126.057 115.771 125.367 115.651 124.677 115.461C123.677 115.201 122.747 114.711 121.957 114.041C121.387 113.551 120.917 112.961 120.577 112.291C120.237 111.601 120.027 110.841 119.977 110.071C119.947 109.451 119.987 108.841 120.117 108.231L120.297 107.391L120.647 105.881L121.047 104.401C122.147 100.561 123.467 96.7906 125.017 93.1006C126.557 89.4406 128.177 85.9306 130.077 82.3706C131.247 80.1806 133.977 79.3506 136.167 80.5206C138.307 81.6606 139.157 84.3006 138.087 86.4706L138.027 86.6006Z" fill="#CF7A64"/>
<path d="M141.187 108.62L144.877 107.17L144.697 114.03C143.207 113.93 141.767 113.44 140.517 112.62C139.887 112.17 139.617 111.37 139.827 110.62L140.037 109.87C140.197 109.3 140.627 108.83 141.187 108.62Z" fill="#CE7A63"/>
<path d="M150.957 106.391L149.627 112.341L144.697 114.031L144.877 107.171L150.957 106.391Z" fill="#CE7A63"/>
<path d="M157.827 55.8905C157.927 56.3605 158.257 56.6805 158.557 56.6205C158.857 56.5605 159.037 56.1305 158.937 55.6605C158.837 55.1905 158.517 54.8205 158.207 54.9205C157.907 55.0105 157.737 55.4105 157.827 55.8905Z" fill="#263238"/>
<path d="M158.207 56.6904C159.057 58.0104 160.087 59.2104 161.267 60.2504C160.707 60.8504 159.917 61.1704 159.107 61.1304L158.207 56.6904Z" fill="#BA4D3C"/>
<path d="M155.587 53.6305C155.517 53.6305 155.447 53.6005 155.397 53.5505C155.287 53.4405 155.287 53.2705 155.397 53.1605C155.997 52.4805 156.887 52.1305 157.797 52.2205C157.947 52.2505 158.047 52.3905 158.027 52.5505C158.007 52.7005 157.867 52.8105 157.717 52.7805C157.717 52.7805 157.717 52.7805 157.707 52.7805C156.987 52.7105 156.287 52.9905 155.817 53.5405C155.747 53.6005 155.667 53.6305 155.587 53.6305Z" fill="#263238"/>
<path d="M144.807 64.4204C145.647 68.7604 146.167 74.7804 143.137 77.6804C143.137 77.6804 144.327 82.0804 152.397 82.0804C161.267 82.0804 156.667 78.2104 156.667 78.2104C152.977 77.0704 153.007 72.8704 153.857 69.4904L144.807 64.4204Z" fill="#CE7A63"/>
<path d="M132.507 77.7004C126.937 78.9804 123.267 93.9904 123.267 93.9904L132.597 100.97C136.047 98.4904 138.497 94.8604 139.497 90.7204C141.367 83.2604 138.187 76.4004 132.507 77.7004Z" fill="#08B780"/>
<path opacity="0.2" d="M137.267 88.1504C134.087 91.5304 132.237 95.9504 132.057 100.59L132.547 100.97C135.997 98.4904 138.447 94.8504 139.447 90.7204C139.557 90.2804 139.657 89.8304 139.737 89.3904L137.267 88.1504Z" fill="black"/>
<path d="M167.667 83.6605C168.867 90.0105 170.677 105.101 167.287 130.731C167.227 131.161 166.887 131.501 166.447 131.571C163.537 131.911 160.597 131.871 157.697 131.451C151.847 130.611 146.997 130.971 141.327 131.451C138.827 131.641 136.317 131.681 133.807 131.561C133.267 131.531 132.857 131.071 132.877 130.531C132.877 130.501 132.877 130.481 132.887 130.451C133.767 123.851 136.947 99.3305 132.527 77.7205C136.037 77.0505 139.587 76.6005 143.147 76.3805C147.647 76.1205 152.157 76.1205 156.647 76.3805C158.137 76.5105 159.597 76.7305 160.897 76.9605C164.337 77.5905 167.017 80.2505 167.667 83.6605Z" fill="#08B780"/>
<path d="M141.977 58.0705C143.497 63.7705 144.107 67.1705 147.617 69.5405C152.907 73.1105 159.477 69.0105 159.687 62.9805C159.867 57.5505 157.347 49.1605 151.247 48.0105C146.887 47.1705 142.677 50.0105 141.837 54.3705C141.587 55.6005 141.647 56.8605 141.977 58.0705Z" fill="#CE7A63"/>
<path d="M155.297 59.8205C157.077 63.7405 156.517 67.3405 154.307 69.0105C151.797 70.9105 144.777 71.2105 142.117 68.5105C143.127 67.5005 143.687 66.2405 142.397 64.4405C141.107 62.6405 136.347 59.8605 136.257 56.0205C136.167 52.1805 138.707 51.7505 138.557 51.7505C136.307 50.7505 136.457 47.1405 138.927 45.1505C141.547 43.0405 145.807 42.4505 150.877 43.4805C154.077 44.1105 157.217 44.0605 156.667 42.0405C160.437 44.2005 158.567 52.2105 154.917 53.2605C155.497 54.7005 158.017 57.0005 158.017 57.0005C158.017 57.0005 157.387 59.3905 155.297 59.8205Z" fill="#263238"/>
<path d="M138.917 50.9705C138.917 50.9705 137.547 51.8105 133.947 50.7505C134.917 52.5505 138.517 52.6105 139.387 52.2005C140.257 51.8005 138.917 50.9705 138.917 50.9705Z" fill="#263238"/>
<path d="M153.017 58.3806C153.347 59.7206 154.107 60.9206 155.187 61.7806C156.617 62.9106 157.697 61.8706 157.697 60.2206C157.637 58.7306 156.857 56.3606 155.237 55.8806C153.617 55.3906 152.637 56.7606 153.017 58.3806Z" fill="#CE7A63"/>
<path d="M167.897 82.7905C168.637 84.5205 169.337 86.2605 170.057 88.0005C170.777 89.7405 171.477 91.4805 172.167 93.2305L176.297 103.66C176.987 105.38 177.687 107.09 178.387 108.74L178.917 109.93L179.047 110.22V110.29C179.047 110.29 179.047 110.29 178.997 110.21C178.877 110 178.737 109.8 178.587 109.62C178.277 109.28 177.907 108.99 177.497 108.78C177.197 108.61 176.867 108.49 176.527 108.42C176.317 108.37 176.107 108.35 175.897 108.34C175.767 108.33 175.637 108.33 175.507 108.34C175.377 108.35 175.247 108.37 175.127 108.41C175.057 108.42 174.987 108.45 174.927 108.49C175.177 108.44 175.417 108.36 175.647 108.24C175.977 108.09 176.357 107.91 176.727 107.71C178.247 106.87 179.847 105.96 181.447 105.04C183.037 104.11 184.697 103.18 186.347 102.29H186.397C187.497 101.7 188.867 102.11 189.467 103.21C189.907 104.03 189.807 105.03 189.207 105.74C186.707 108.77 183.907 111.54 180.857 114.01C180.447 114.33 180.017 114.64 179.547 114.97C178.977 115.37 178.377 115.71 177.747 115.99C177.477 116.11 177.197 116.2 176.907 116.27C176.667 116.33 176.427 116.37 176.177 116.4C175.987 116.41 175.797 116.41 175.597 116.4C175.317 116.4 175.037 116.36 174.757 116.3C174.367 116.21 173.987 116.07 173.627 115.88C173.157 115.63 172.737 115.29 172.397 114.89C172.227 114.68 172.067 114.46 171.927 114.23L171.847 114.09L171.797 114.01L171.617 113.67C171.357 113.21 171.137 112.78 170.897 112.33C169.987 110.58 169.157 108.85 168.387 107.11C166.777 103.64 165.267 100.19 163.787 96.7104C163.057 94.9704 162.327 93.2305 161.617 91.4805C160.907 89.7305 160.197 87.9904 159.517 86.2404C158.577 83.9304 159.687 81.3005 161.997 80.3705C164.307 79.4305 166.937 80.5405 167.867 82.8505L167.897 82.7905Z" fill="#CF7A64"/>
<path d="M189.687 98.8005C187.537 100.03 185.957 102.07 185.307 104.47L187.367 107.12L191.877 105.73C192.237 105.62 192.547 105.39 192.757 105.08L195.067 101.66C195.437 100.98 195.377 100.15 194.917 99.5305L192.467 96.2405L189.687 98.8005Z" fill="#CE7A63"/>
<path d="M155.637 86.9505C156.157 93.5705 163.447 102.221 163.447 102.221L173.727 94.5105C173.727 94.5105 172.167 85.2005 166.837 80.1505C160.247 73.9205 155.147 80.7605 155.637 86.9505Z" fill="#08B780"/>
<path d="M158.127 76.3704C157.177 73.5804 146.227 73.1004 139.627 73.7604C133.027 74.4304 136.357 79.5604 137.467 80.2804C134.477 81.3904 136.077 86.6704 141.647 89.2604C147.217 91.8504 159.317 79.7304 158.127 76.3704Z" fill="#263238"/>
</svg>
