<svg width="327" height="287" viewBox="0 0 327 287" fill="none" xmlns="http://www.w3.org/2000/svg">
<g opacity="0.25">
<path opacity="0.25" d="M48.19 4.33763C69.51 -6.51237 92.1 4.94762 109.97 17.2676C125.95 28.2976 141.21 41.5176 159.87 47.9176C184.27 56.2776 207.25 47.5776 230.7 40.8976C248.86 35.7276 270.3 32.0676 287.73 41.5476C319.74 58.9576 321.94 100.718 315.22 132.408C296.71 219.808 186.37 249.638 109.82 226.278C97.41 222.528 85.58 217.078 74.67 210.078C41.4 188.618 17.33 152.478 9.77003 113.678C2.70003 77.3276 16.15 20.6576 48.19 4.33763Z" fill="white"/>
</g>
<g opacity="0.25">
<path opacity="0.25" d="M163.12 286.977C253.209 286.977 326.24 282.715 326.24 277.458C326.24 272.2 253.209 267.938 163.12 267.938C73.0313 267.938 0 272.2 0 277.458C0 282.715 73.0313 286.977 163.12 286.977Z" fill="#F5F5F5"/>
</g>
<path d="M142.36 15.6777H270.91C275.74 15.6777 279.66 19.5977 279.66 24.4277V269.628C279.66 274.458 275.74 278.378 270.91 278.378H142.36C137.53 278.378 133.61 274.458 133.61 269.628V24.4277C133.61 19.5977 137.52 15.6777 142.36 15.6777Z" fill="#08B780"/>
<path opacity="0.4" d="M142.36 15.6777H270.91C275.74 15.6777 279.66 19.5977 279.66 24.4277V269.628C279.66 274.458 275.74 278.378 270.91 278.378H142.36C137.53 278.378 133.61 274.458 133.61 269.628V24.4277C133.61 19.5977 137.52 15.6777 142.36 15.6777Z" fill="white"/>
<path d="M274.74 24.4778V269.108C274.74 271.078 273.14 272.688 271.16 272.688C271.14 272.688 271.12 272.688 271.1 272.688H141.78C140.01 272.708 138.56 271.298 138.53 269.528C138.53 269.488 138.53 269.448 138.53 269.408V24.1878C138.47 22.5978 139.71 21.2578 141.3 21.1978H141.31H173.63C174.56 21.2078 175.38 21.7878 175.72 22.6578L177.06 25.9478C177.39 26.8078 178.22 27.3778 179.14 27.3878H234.19C235.12 27.4078 235.97 26.8378 236.31 25.9778L237.66 22.6678C237.99 21.8078 238.81 21.2278 239.74 21.2078H271.57C273.34 21.2378 274.75 22.7078 274.74 24.4778Z" fill="#263238"/>
<path opacity="0.3" d="M274.74 36.4678H138.54V256.468H274.74V36.4678Z" fill="white"/>
<path opacity="0.6" d="M155.23 28.7979H153.55V31.0479H155.23V28.7979Z" fill="white"/>
<path opacity="0.6" d="M152.49 28.0576H150.81V31.0476H152.49V28.0576Z" fill="white"/>
<path opacity="0.6" d="M149.74 27.3076H148.06V31.0476H149.74V27.3076Z" fill="white"/>
<path opacity="0.6" d="M147 26.5576H145.32V31.0376H147V26.5576Z" fill="white"/>
<path opacity="0.6" d="M259.32 27.9878H258.32V30.2378H259.32V27.9878Z" fill="white"/>
<path opacity="0.6" d="M267.95 27.1777H260.01V31.0577H267.95V27.1777Z" fill="white"/>
<path d="M271.38 40.7878H141.9V62.9778H271.38V40.7878Z" fill="#08B780"/>
<path d="M264.13 49.0776C264.676 49.0776 265.12 48.6344 265.12 48.0876C265.12 47.5409 264.676 47.0977 264.13 47.0977C263.583 47.0977 263.14 47.5409 263.14 48.0876C263.14 48.6344 263.583 49.0776 264.13 49.0776Z" fill="white"/>
<path d="M264.13 52.8677C264.676 52.8677 265.12 52.4245 265.12 51.8777C265.12 51.331 264.676 50.8877 264.13 50.8877C263.583 50.8877 263.14 51.331 263.14 51.8777C263.14 52.4245 263.583 52.8677 264.13 52.8677Z" fill="white"/>
<path d="M264.13 56.6477C264.676 56.6477 265.12 56.2045 265.12 55.6577C265.12 55.111 264.676 54.6677 264.13 54.6677C263.583 54.6677 263.14 55.111 263.14 55.6577C263.14 56.2045 263.583 56.6477 264.13 56.6477Z" fill="white"/>
<path d="M249.86 53.8477C251.633 53.8477 253.07 52.4106 253.07 50.6377C253.07 48.8649 251.633 47.4277 249.86 47.4277C248.087 47.4277 246.65 48.8649 246.65 50.6377C246.65 52.4106 248.087 53.8477 249.86 53.8477Z" stroke="white" stroke-width="0.8413" stroke-linecap="round" stroke-linejoin="round"/>
<path d="M252.12 52.8977L255.54 56.3277" stroke="white" stroke-width="0.8413" stroke-linecap="round" stroke-linejoin="round"/>
<path d="M240.2 47.0378H233.4V56.7078H240.2V47.0378Z" stroke="white" stroke-width="0.8413" stroke-linecap="round" stroke-linejoin="round"/>
<path d="M242.73 47.3477L238.11 51.7477" stroke="white" stroke-width="0.8413" stroke-linecap="round" stroke-linejoin="round"/>
<path d="M162.07 47.0378H149.27V56.7078H162.07V47.0378Z" stroke="white" stroke-width="0.8413" stroke-linecap="round" stroke-linejoin="round"/>
<path d="M149.27 47.0378L155.67 51.8778L162.08 47.0378" stroke="white" stroke-width="0.8413" stroke-linecap="round" stroke-linejoin="round"/>
<path opacity="0.6" d="M271.38 64.8677H141.9V253.358H271.38V64.8677Z" fill="white"/>
<path d="M145.33 90.5378H267.95" stroke="#263238" stroke-width="0.8413" stroke-linecap="round" stroke-linejoin="round"/>
<path opacity="0.3" d="M163.26 78.2878C163.26 82.4278 159.9 85.7878 155.76 85.7878C151.62 85.7878 148.26 82.4278 148.26 78.2878C148.26 74.1478 151.62 70.7878 155.76 70.7878C159.9 70.7878 163.25 74.1278 163.26 78.2678C163.26 78.2778 163.26 78.2878 163.26 78.2878Z" fill="black"/>
<path d="M157.23 80.1678C158.57 79.3778 159.01 77.6578 158.23 76.3178C157.44 74.9778 155.72 74.5378 154.38 75.3178C153.04 76.0978 152.6 77.8278 153.38 79.1678C153.62 79.5778 153.96 79.9178 154.38 80.1678C152.81 80.7578 151.77 82.2678 151.77 83.9478C151.77 84.1778 151.79 84.4078 151.83 84.6378C154.27 86.1678 157.36 86.1678 159.8 84.6378C159.84 84.4078 159.86 84.1778 159.86 83.9478C159.86 82.2578 158.81 80.7578 157.23 80.1678Z" fill="white"/>
<path opacity="0.3" d="M191.59 76.6477H170.06C169.51 76.6477 169.07 76.2077 169.07 75.6577V75.6477C169.07 75.0977 169.51 74.6577 170.06 74.6577H191.59C192.14 74.6577 192.58 75.0977 192.58 75.6477C192.59 76.1977 192.15 76.6477 191.59 76.6477C191.6 76.6477 191.59 76.6477 191.59 76.6477Z" fill="black"/>
<path opacity="0.3" d="M216.83 80.9778H170.06C169.51 80.9778 169.07 80.5278 169.07 79.9778C169.07 79.4278 169.51 78.9778 170.05 78.9778H170.06H216.83C217.38 78.9878 217.81 79.4378 217.81 79.9778C217.8 80.5178 217.37 80.9578 216.83 80.9778Z" fill="black"/>
<path d="M145.33 115.118H267.95" stroke="#263238" stroke-width="0.8413" stroke-linecap="round" stroke-linejoin="round"/>
<path opacity="0.3" d="M163.26 102.868C163.26 107.008 159.9 110.368 155.76 110.368C151.62 110.368 148.26 107.008 148.26 102.868C148.26 98.7277 151.62 95.3677 155.76 95.3677C159.9 95.3677 163.25 98.7077 163.26 102.848C163.26 102.858 163.26 102.858 163.26 102.868Z" fill="black"/>
<path d="M157.23 104.738C158.57 103.948 159.01 102.228 158.23 100.888C157.44 99.5476 155.72 99.1076 154.38 99.8876C153.04 100.668 152.6 102.398 153.38 103.738C153.62 104.148 153.96 104.488 154.38 104.738C152.81 105.328 151.77 106.838 151.77 108.518C151.77 108.748 151.79 108.978 151.83 109.208C154.27 110.738 157.36 110.738 159.8 109.208C159.84 108.978 159.86 108.748 159.86 108.518C159.86 106.838 158.81 105.328 157.23 104.738Z" fill="white"/>
<path opacity="0.3" d="M191.59 101.218H170.06C169.51 101.218 169.07 100.778 169.07 100.228C169.07 99.6778 169.51 99.2278 170.05 99.2278H170.06H191.59C192.14 99.2278 192.58 99.6678 192.58 100.218V100.228C192.58 100.768 192.14 101.218 191.59 101.218Z" fill="black"/>
<path opacity="0.3" d="M216.83 105.538H170.06C169.51 105.538 169.07 105.098 169.07 104.548V104.538C169.07 103.988 169.51 103.548 170.06 103.548H216.83C217.37 103.558 217.81 103.998 217.81 104.538C217.81 105.088 217.37 105.528 216.83 105.538Z" fill="black"/>
<path d="M145.33 139.678H267.95" stroke="#263238" stroke-width="0.8413" stroke-linecap="round" stroke-linejoin="round"/>
<path opacity="0.3" d="M163.26 127.428C163.26 131.568 159.9 134.928 155.76 134.928C151.62 134.928 148.26 131.568 148.26 127.428C148.26 123.288 151.62 119.928 155.76 119.928C159.9 119.928 163.25 123.268 163.26 127.408C163.26 127.418 163.26 127.428 163.26 127.428Z" fill="black"/>
<path d="M157.23 129.308C158.57 128.518 159.01 126.798 158.23 125.458C157.44 124.118 155.72 123.678 154.38 124.458C153.04 125.238 152.6 126.968 153.38 128.308C153.62 128.718 153.96 129.058 154.38 129.308C152.81 129.898 151.77 131.408 151.77 133.088C151.77 133.318 151.79 133.548 151.83 133.778C154.27 135.308 157.36 135.308 159.8 133.778C159.84 133.548 159.86 133.318 159.86 133.088C159.86 131.398 158.81 129.898 157.23 129.308Z" fill="white"/>
<path opacity="0.3" d="M191.59 125.828H170.06C169.51 125.828 169.07 125.388 169.07 124.838V124.828C169.07 124.278 169.51 123.828 170.06 123.828H191.59C192.14 123.828 192.58 124.278 192.58 124.828C192.59 125.368 192.15 125.818 191.59 125.828C191.6 125.828 191.59 125.828 191.59 125.828Z" fill="black"/>
<path opacity="0.3" d="M216.83 130.108H170.06C169.51 130.108 169.07 129.668 169.07 129.118C169.07 128.568 169.51 128.118 170.05 128.118H170.06H216.83C217.38 128.118 217.82 128.558 217.82 129.108V129.118C217.82 129.658 217.38 130.108 216.83 130.108Z" fill="black"/>
<path d="M145.33 164.248H267.95" stroke="#263238" stroke-width="0.8413" stroke-linecap="round" stroke-linejoin="round"/>
<path opacity="0.3" d="M163.26 152.008C163.26 156.148 159.9 159.508 155.76 159.508C151.62 159.508 148.26 156.148 148.26 152.008C148.26 147.868 151.62 144.508 155.76 144.508C159.9 144.508 163.25 147.848 163.26 151.988C163.26 151.998 163.26 151.998 163.26 152.008Z" fill="black"/>
<path d="M157.23 153.878C158.57 153.088 159.01 151.368 158.23 150.028C157.44 148.688 155.72 148.248 154.38 149.028C153.04 149.818 152.6 151.538 153.38 152.878C153.62 153.288 153.96 153.628 154.38 153.878C152.81 154.468 151.77 155.978 151.77 157.658C151.77 157.888 151.79 158.118 151.83 158.348C154.27 159.878 157.36 159.878 159.8 158.348C159.84 158.118 159.86 157.888 159.86 157.658C159.86 155.978 158.81 154.468 157.23 153.878Z" fill="white"/>
<path opacity="0.3" d="M191.59 150.358H170.06C169.51 150.358 169.07 149.918 169.07 149.368V149.358C169.07 148.808 169.51 148.368 170.06 148.368H191.59C192.14 148.378 192.58 148.828 192.57 149.378V149.388C192.56 149.918 192.12 150.348 191.59 150.358Z" fill="black"/>
<path opacity="0.3" d="M216.83 154.678H170.06C169.51 154.678 169.07 154.238 169.07 153.688V153.678C169.07 153.128 169.51 152.678 170.06 152.678H216.83C217.38 152.678 217.82 153.128 217.82 153.678C217.83 154.228 217.39 154.678 216.83 154.678Z" fill="black"/>
<path d="M145.33 188.818H267.95" stroke="#263238" stroke-width="0.8413" stroke-linecap="round" stroke-linejoin="round"/>
<path opacity="0.3" d="M163.26 176.568C163.26 180.708 159.9 184.068 155.76 184.068C151.62 184.068 148.26 180.708 148.26 176.568C148.26 172.428 151.62 169.068 155.76 169.068C159.9 169.068 163.25 172.408 163.26 176.548C163.26 176.558 163.26 176.568 163.26 176.568Z" fill="black"/>
<path d="M157.23 178.448C158.57 177.658 159.01 175.938 158.23 174.598C157.44 173.258 155.72 172.818 154.38 173.598C153.04 174.378 152.6 176.108 153.38 177.448C153.62 177.858 153.96 178.198 154.38 178.448C152.81 179.038 151.77 180.548 151.77 182.228C151.77 182.458 151.79 182.688 151.83 182.918C154.27 184.448 157.36 184.448 159.8 182.918C159.84 182.688 159.86 182.458 159.86 182.228C159.86 180.538 158.81 179.038 157.23 178.448Z" fill="white"/>
<path opacity="0.3" d="M191.59 174.928H170.06C169.51 174.928 169.07 174.478 169.07 173.928C169.07 173.378 169.51 172.928 170.05 172.928H170.06H191.59C192.14 172.928 192.58 173.368 192.58 173.918V173.928C192.58 174.478 192.14 174.928 191.59 174.928Z" fill="black"/>
<path opacity="0.3" d="M216.83 179.248H170.06C169.51 179.248 169.07 178.808 169.07 178.258C169.07 177.708 169.51 177.258 170.05 177.258H170.06H216.83C217.38 177.258 217.82 177.698 217.82 178.248V178.258C217.82 178.798 217.38 179.248 216.83 179.248Z" fill="black"/>
<path d="M145.33 213.388H267.95" stroke="#263238" stroke-width="0.8413" stroke-linecap="round" stroke-linejoin="round"/>
<path opacity="0.3" d="M163.26 201.138C163.26 205.278 159.9 208.638 155.76 208.638C151.62 208.638 148.26 205.278 148.26 201.138C148.26 196.998 151.62 193.638 155.76 193.638C159.9 193.638 163.25 196.978 163.26 201.118C163.26 201.128 163.26 201.128 163.26 201.138Z" fill="black"/>
<path d="M157.23 203.018C158.57 202.228 159.01 200.508 158.23 199.168C157.44 197.828 155.72 197.388 154.38 198.168C153.04 198.958 152.6 200.678 153.38 202.018C153.62 202.428 153.96 202.768 154.38 203.018C152.81 203.608 151.77 205.118 151.77 206.798C151.77 207.028 151.79 207.258 151.83 207.488C154.27 209.018 157.36 209.018 159.8 207.488C159.84 207.258 159.86 207.028 159.86 206.798C159.86 205.108 158.81 203.598 157.23 203.018Z" fill="white"/>
<path opacity="0.3" d="M191.59 199.498H170.06C169.51 199.498 169.07 199.058 169.07 198.508V198.498C169.07 197.948 169.51 197.508 170.06 197.508H191.59C192.14 197.508 192.58 197.948 192.58 198.498C192.59 199.048 192.15 199.488 191.59 199.498C191.6 199.498 191.59 199.498 191.59 199.498Z" fill="black"/>
<path opacity="0.3" d="M216.83 203.818H170.06C169.51 203.818 169.07 203.368 169.07 202.818C169.07 202.268 169.51 201.818 170.05 201.818H170.06H216.83C217.38 201.818 217.82 202.258 217.82 202.808V202.818C217.82 203.368 217.38 203.818 216.83 203.818Z" fill="black"/>
<path d="M145.33 237.958H267.95" stroke="#263238" stroke-width="0.8413" stroke-linecap="round" stroke-linejoin="round"/>
<path opacity="0.3" d="M163.26 225.708C163.26 229.848 159.9 233.208 155.76 233.208C151.62 233.208 148.26 229.848 148.26 225.708C148.26 221.568 151.62 218.208 155.76 218.208C159.9 218.208 163.25 221.548 163.26 225.688C163.26 225.698 163.26 225.708 163.26 225.708Z" fill="black"/>
<path d="M157.23 227.618C158.57 226.828 159.01 225.108 158.23 223.768C157.44 222.428 155.72 221.988 154.38 222.768C153.04 223.548 152.6 225.278 153.38 226.618C153.62 227.028 153.96 227.368 154.38 227.618C152.81 228.208 151.77 229.718 151.77 231.398C151.77 231.628 151.79 231.858 151.83 232.088C154.27 233.618 157.36 233.618 159.8 232.088C159.84 231.858 159.86 231.628 159.86 231.398C159.86 229.718 158.81 228.208 157.23 227.618Z" fill="white"/>
<path opacity="0.3" d="M191.59 224.068H170.06C169.51 224.068 169.07 223.628 169.07 223.078C169.07 222.528 169.51 222.078 170.05 222.078H170.06H191.59C192.14 222.078 192.58 222.518 192.58 223.068V223.078C192.58 223.618 192.14 224.068 191.59 224.068Z" fill="black"/>
<path opacity="0.3" d="M216.83 228.388H170.06C169.51 228.388 169.07 227.948 169.07 227.398V227.388C169.07 226.838 169.51 226.398 170.06 226.398H216.83C217.38 226.398 217.82 226.838 217.82 227.388C217.83 227.938 217.39 228.378 216.83 228.388Z" fill="black"/>
<path d="M256.72 82.6978C258.857 82.6978 260.59 80.9651 260.59 78.8278C260.59 76.6904 258.857 74.9578 256.72 74.9578C254.583 74.9578 252.85 76.6904 252.85 78.8278C252.85 80.9651 254.583 82.6978 256.72 82.6978Z" fill="#08B780"/>
<path d="M257.35 77.1677V80.9177H256.51V77.8677H255.75V77.1777L257.35 77.1677Z" fill="white"/>
<path d="M256.72 106.728C258.857 106.728 260.59 104.995 260.59 102.858C260.59 100.72 258.857 98.9878 256.72 98.9878C254.583 98.9878 252.85 100.72 252.85 102.858C252.85 104.995 254.583 106.728 256.72 106.728Z" fill="#08B780"/>
<path d="M258.52 104.158H257.91V104.938H257.07V104.158H255.05V103.568L256.82 101.188H257.74L256.1 103.438H257.1V102.738H257.94V103.438H258.55L258.52 104.158Z" fill="white"/>
<path d="M256.72 130.758C258.857 130.758 260.59 129.025 260.59 126.888C260.59 124.75 258.857 123.018 256.72 123.018C254.583 123.018 252.85 124.75 252.85 126.888C252.85 129.025 254.583 130.758 256.72 130.758Z" fill="#08B780"/>
<path d="M258.19 128.268V128.988H255.35V128.428L256.8 127.058C257.13 126.738 257.19 126.548 257.19 126.368C257.19 126.188 256.99 125.898 256.59 125.898C256.28 125.888 255.99 126.028 255.81 126.278L255.18 125.868C255.53 125.408 256.09 125.138 256.67 125.168C257.51 125.168 258.07 125.598 258.07 126.278C258.06 126.748 257.83 127.188 257.45 127.468L256.61 128.308L258.19 128.268Z" fill="white"/>
<path d="M256.72 154.788C258.857 154.788 260.59 153.055 260.59 150.918C260.59 148.781 258.857 147.048 256.72 147.048C254.583 147.048 252.85 148.781 252.85 150.918C252.85 153.055 254.583 154.788 256.72 154.788Z" fill="#08B780"/>
<path d="M257.35 149.248V153.008H256.51V149.948H255.76V149.248H257.35Z" fill="white"/>
<path d="M256.72 178.818C258.857 178.818 260.59 177.085 260.59 174.948C260.59 172.81 258.857 171.078 256.72 171.078C254.583 171.078 252.85 172.81 252.85 174.948C252.85 177.085 254.583 178.818 256.72 178.818Z" fill="#08B780"/>
<path d="M257.35 173.278V177.028H256.51V173.968H255.76V173.278H257.35Z" fill="white"/>
<path d="M162.08 58.5379C164.217 58.5379 165.95 56.8052 165.95 54.6678C165.95 52.5305 164.217 50.7979 162.08 50.7979C159.943 50.7979 158.21 52.5305 158.21 54.6678C158.21 56.8052 159.943 58.5379 162.08 58.5379Z" fill="white"/>
<path d="M163.57 54.7978C163.68 55.7978 162.95 56.6978 161.95 56.8078C161.85 56.8178 161.75 56.8178 161.65 56.8178C161.29 56.8278 160.93 56.7378 160.62 56.5578L160.94 55.9178C161.15 56.0578 161.39 56.1178 161.64 56.1078C162.19 56.1478 162.67 55.7278 162.7 55.1678C162.7 55.1178 162.7 55.0578 162.7 55.0078C162.45 55.2378 162.11 55.3578 161.77 55.3478C161.11 55.4078 160.53 54.9178 160.48 54.2578C160.48 54.2278 160.48 54.2078 160.48 54.1778C160.5 53.4578 161.1 52.8978 161.81 52.9178C161.84 52.9178 161.87 52.9178 161.9 52.9278C162.93 52.9378 163.57 53.5778 163.57 54.7978ZM162.61 54.1478C162.61 53.8178 162.37 53.5878 161.95 53.5878C161.64 53.5878 161.39 53.8378 161.39 54.1478C161.39 54.4578 161.64 54.7078 161.95 54.7178C162.27 54.7578 162.57 54.5278 162.6 54.1978C162.61 54.1778 162.61 54.1578 162.61 54.1478Z" fill="#263238"/>
<path d="M205.57 260.888H207.71C208.61 260.888 209.34 261.618 209.34 262.518V264.658C209.34 265.558 208.61 266.288 207.71 266.288H205.57C204.67 266.288 203.94 265.558 203.94 264.658V262.518C203.94 261.618 204.67 260.888 205.57 260.888Z" stroke="white" stroke-width="0.8413" stroke-miterlimit="10"/>
<path opacity="0.6" d="M206.62 21.4977C206.62 22.5277 205.78 23.3677 204.75 23.3677C203.72 23.3677 202.88 22.5277 202.88 21.4977C202.88 20.4677 203.72 19.6277 204.75 19.6277C205.78 19.6377 206.62 20.4677 206.62 21.4977Z" fill="black"/>
<path opacity="0.6" d="M210.4 21.4976C210.4 22.1576 209.87 22.7076 209.21 22.7076C208.55 22.7076 208 22.1776 208 21.5176C208 20.8576 208.53 20.3076 209.19 20.3076H209.2C209.86 20.3076 210.4 20.8376 210.4 21.4976Z" fill="black"/>
<path opacity="0.2" d="M269.12 21.1877L138.53 151.788V24.1877C138.47 22.5977 139.71 21.2577 141.3 21.1977H173.63C174.56 21.2077 175.38 21.7877 175.72 22.6577L177.06 25.9477C177.39 26.8077 178.22 27.3777 179.14 27.3877H234.19C235.12 27.4077 235.97 26.8377 236.31 25.9777L237.66 22.6677C237.99 21.8077 238.81 21.2277 239.74 21.2077H269.12V21.1877Z" fill="white"/>
<path opacity="0.2" d="M274.74 32.1377V50.2977L138.54 186.498V168.328L274.74 32.1377Z" fill="white"/>
<path d="M37.1001 278.378H38.4701L47.3401 199.228L44.4001 199.658L37.1001 278.378Z" fill="#263238"/>
<path d="M87.21 199.658L84.27 199.228L93.13 278.378H94.51L87.21 199.658Z" fill="#263238"/>
<g opacity="0.1">
<path opacity="0.1" d="M43.3901 210.587L37.1001 278.377H38.4701L46.0701 210.587H43.3901Z" fill="white"/>
<path opacity="0.1" d="M85.54 210.587L93.13 278.377H94.51L88.22 210.587H85.54Z" fill="white"/>
</g>
<path d="M94.5098 278.378L78.7698 231.738L87.1798 199.658L84.2398 199.228L77.3698 227.668L67.7698 199.228L65.7798 199.518L63.7798 199.228L54.1898 227.668L47.3198 199.228L44.3798 199.658L52.7898 231.738L37.0498 278.378H38.4198L53.7898 235.568L65.0498 278.378H66.4598L77.7098 235.568L93.0798 278.378H94.5098ZM65.8098 275.618L55.2098 231.778L65.8098 202.278L76.3998 231.778L65.8098 275.618Z" fill="#263238"/>
<path d="M45.1398 191.887H86.4598C88.1598 191.887 89.5398 193.267 89.5398 194.967V200.537H42.0698V194.967C42.0698 193.267 43.4398 191.887 45.1398 191.887Z" fill="#263238"/>
<path d="M41.42 197.218H90.22C90.71 197.218 91.11 197.618 91.11 198.108V201.208C91.11 201.698 90.71 202.088 90.23 202.088H41.43C40.94 202.088 40.55 201.688 40.55 201.208V198.108C40.54 197.618 40.93 197.228 41.42 197.218Z" fill="#263238"/>
<path opacity="0.5" d="M41.42 197.218H90.22C90.71 197.218 91.11 197.618 91.11 198.108V201.208C91.11 201.698 90.71 202.088 90.23 202.088H41.43C40.94 202.088 40.55 201.688 40.55 201.208V198.108C40.54 197.618 40.93 197.228 41.42 197.218Z" fill="white"/>
<path opacity="0.3" d="M85.7996 205.038L82.8596 205.098L77.4096 227.658L69.8396 205.238H66.8896L76.4096 231.768L65.8196 275.608L55.2196 231.768L64.7496 205.238H61.7996L54.2296 227.678L48.7196 204.908C47.6896 204.858 46.6896 204.798 45.7496 204.728L52.8596 231.768L37.1196 278.408H38.4896L53.8596 235.598L65.1196 278.408H66.5296L77.7796 235.598L93.1496 278.408H94.5296L78.7896 231.768L85.7996 205.038Z" fill="white"/>
<path d="M130.05 82.4175C129.21 82.0075 122.38 84.3475 121.44 84.9875C120.51 85.6375 120.3 87.7875 120.3 87.7875L112.96 96.5475C105.49 106.368 81.04 108.018 81.04 108.018L81.88 115.978C81.88 115.978 108.12 112.098 115.29 101.518L123.29 90.3175C123.94 90.3775 130.17 89.0275 131.3 88.1575C132.44 87.2875 130.93 82.8275 130.05 82.4175Z" fill="#EEC1BB"/>
<path d="M57.12 118.427C57.12 118.427 50.72 135.467 45.9 137.887C39.46 141.107 28.23 123.867 28.23 123.867L31.53 121.987C31.53 121.987 40.72 131.667 43.36 130.557C46 129.447 49.16 116.907 49.16 116.907L57.12 118.427Z" fill="#EEC1BB"/>
<path d="M49.3698 114.607C49.3698 114.607 56.5798 116.557 57.9598 122.717L52.7098 131.037L43.9898 128.347C43.9798 128.347 47.2798 115.387 49.3698 114.607Z" fill="#263238"/>
<path d="M84.7498 106.058C87.2698 105.348 92.7298 105.458 92.7298 105.868C92.7298 106.278 90.2698 115.658 90.2698 115.658L83.2798 120.658L84.7498 106.058Z" fill="#263238"/>
<path d="M50.2499 91.1577C50.2499 91.1577 49.0099 102.798 53.3199 105.658C57.6299 108.518 78.8399 105.168 81.2399 100.488C83.6499 95.7976 74.5899 83.0977 74.5899 83.0977L50.2499 91.1577Z" fill="#263238"/>
<path d="M140.59 244.158L135.06 245.488L132.26 237.848L129.72 230.898L136.02 228.218L138.44 236.648L140.59 244.158Z" fill="#EEC1BB"/>
<path opacity="0.2" d="M138.44 236.648L132.26 237.848L129.72 230.898L136.02 228.218L138.44 236.648Z" fill="black"/>
<path d="M137.88 232.617L130.21 235.467C130.21 235.467 109.74 184.287 105.53 184.147C101.32 184.007 58.49 203.657 47.76 192.737C37.03 181.817 52.55 155.517 52.55 155.517C52.55 155.517 78.37 151.837 80.31 157.667C80.79 159.387 81.15 161.137 81.4 162.897C81.69 164.677 81.9 166.177 81.9 166.177C82.7 165.977 108.62 159.287 118.83 166.177C129.23 173.167 137.88 232.617 137.88 232.617Z" fill="#08B780"/>
<path d="M93.7498 265.987L88.2397 264.577L89.2997 256.667L90.2897 249.407L97.0997 250.027L95.3398 258.477L93.7498 265.987Z" fill="#EEC1BB"/>
<path opacity="0.2" d="M95.2898 258.648L89.2598 256.818L90.2698 249.488L97.0898 250.068L95.2898 258.648Z" fill="black"/>
<path d="M127.04 232.627L138.22 228.837L138.7 233.407L130.23 236.407L127.04 232.627Z" fill="#263238"/>
<path d="M66.3101 195.327C66.3101 195.327 68.0601 195.367 95.1401 194.107C95.1401 194.107 91.0801 227.957 88.8801 253.307L96.9801 254.687C96.9801 254.687 116.33 200.417 116.12 191.787C115.91 183.167 106.02 180.637 106.02 180.637C106.02 180.637 86.7301 191.797 66.3101 195.327Z" fill="#08B780"/>
<path opacity="0.2" d="M66.3101 195.327C66.3101 195.327 68.0601 195.367 95.1401 194.107C95.1401 194.107 91.0801 227.957 88.8801 253.307L96.9801 254.687C96.9801 254.687 116.33 200.417 116.12 191.787C115.91 183.167 106.02 180.637 106.02 180.637C106.02 180.637 86.7301 191.797 66.3101 195.327Z" fill="black"/>
<path d="M87.6999 250.857L98.8299 252.127L96.6799 256.487L87.6699 255.337L87.6999 250.857Z" fill="#263238"/>
<path opacity="0.2" d="M81.91 166.147L66.8101 169.297C66.8101 169.297 75.16 164.687 81.41 162.867C81.71 164.647 81.91 166.147 81.91 166.147Z" fill="black"/>
<path d="M53.1801 151.478L52.5601 155.488L80.3201 157.638L81.05 152.878L53.1801 151.478Z" fill="black"/>
<path d="M61.2904 151.083L60.5723 158.066L61.9451 158.208L62.6632 151.224L61.2904 151.083Z" fill="#08B780"/>
<path d="M68.4519 152.501L68.1553 157.112L74.2325 157.503L74.5291 152.892L68.4519 152.501Z" fill="white"/>
<path d="M78.3641 151.824L77.646 158.807L79.0188 158.948L79.737 151.965L78.3641 151.824Z" fill="#08B780"/>
<path d="M149.75 254.908C148.91 254.518 148.01 254.288 147.08 254.228C147.08 254.228 143.88 252.348 140.72 245.038H137.15C135.92 245.048 134.82 245.838 134.42 246.998C134.36 247.158 134.33 247.318 134.32 247.488C134.35 248.348 134.45 249.208 134.6 250.058C135.12 252.898 135.81 255.708 136.68 258.468L137.29 258.318L136.2 252.948C135.84 251.148 137.74 252.888 138.61 254.708C139.48 256.528 140.84 258.368 144.78 257.468C149.34 256.388 151.19 255.728 149.75 254.908Z" fill="#08B780"/>
<path d="M140.08 243.128C140.08 243.128 144.52 252.428 147.09 254.228C147.09 254.228 143.66 256.268 140.08 251.708C135.46 245.818 134.33 247.458 134.33 247.458C134.42 246.438 134.61 245.438 134.89 244.458C135.58 242.568 140.08 243.128 140.08 243.128Z" fill="#EEC1BB"/>
<path d="M100.77 277.078C100.04 276.508 99.22 276.068 98.34 275.778C98.34 275.778 95.68 273.198 94.34 265.348L90.89 264.508C89.69 264.228 88.44 264.738 87.76 265.768C87.67 265.908 87.6 266.058 87.55 266.218C87.38 267.048 87.27 267.898 87.21 268.738C87.04 271.608 87.04 274.498 87.21 277.368H87.83L88.02 271.948C88.1 270.108 89.53 272.248 89.95 274.228C90.37 276.208 91.25 278.298 95.28 278.358C100.02 278.418 101.97 278.218 100.77 277.078Z" fill="#08B780"/>
<path d="M94.13 263.338C94.13 263.338 96.24 273.438 98.34 275.778C98.34 275.778 94.52 276.958 92.12 271.678C89.03 264.868 87.54 266.188 87.54 266.188C87.87 265.218 88.29 264.288 88.79 263.408C89.93 261.728 94.13 263.338 94.13 263.338Z" fill="#EEC1BB"/>
<path d="M75.2998 86.2275C75.2998 86.2275 73.7398 67.7675 58.3098 74.4475C38.9598 82.8575 54.3398 105.358 63.7998 100.738C73.2598 96.1175 75.2998 86.2275 75.2998 86.2275Z" fill="#263238"/>
<path d="M52.7896 116.488C53.8896 122.658 55.0796 134.368 53.0996 151.738L81.1596 153.298C81.1596 153.298 86.2596 120.168 84.7496 106.058C83.6796 106.148 82.6197 106.338 81.5797 106.618C73.4897 108.568 65.2796 109.968 56.9996 110.828C54.3696 111.108 52.4596 113.468 52.7396 116.108C52.7496 116.238 52.7696 116.358 52.7896 116.488Z" fill="#263238"/>
<path d="M73.1001 109.838C72.8301 109.708 72.5501 109.588 72.2601 109.498C71.6001 109.008 70.7801 107.818 70.7301 104.818C70.7201 103.648 70.7901 102.468 70.9501 101.308L62.6001 100.008C62.6001 100.008 65.6001 105.508 63.3701 109.738C62.5301 110.118 62.0201 110.668 62.2101 111.318C63.0501 114.238 71.9501 117.528 71.9501 117.528C71.9501 117.528 78.2001 112.438 73.1001 109.838Z" fill="#EEC1BB"/>
<path opacity="0.2" d="M70.9298 101.318C70.7698 102.478 70.6998 103.658 70.7098 104.828C65.0998 104.998 62.5698 100.028 62.5698 100.028L70.9298 101.318Z" fill="black"/>
<path d="M76.5997 99.9374C75.8997 99.9374 75.2097 99.7274 74.6197 99.3274C73.8297 98.8074 73.2897 97.9874 73.1097 97.0574C72.8297 95.6674 73.4097 94.2474 74.5697 93.4374C74.7097 93.3474 74.9097 93.3774 75.0097 93.5174C75.1097 93.6574 75.0797 93.8474 74.9397 93.9474C73.6097 94.8674 73.2897 96.6974 74.2097 98.0274C75.1297 99.3574 76.9597 99.6774 78.2897 98.7574C79.6197 97.8374 79.9397 96.0074 79.0197 94.6774C78.3597 93.7274 77.1897 93.2574 76.0497 93.4774C75.8797 93.5174 75.7197 93.4074 75.6797 93.2374C75.6397 93.0674 75.7497 92.8974 75.9197 92.8574C77.8497 92.4774 79.7297 93.7374 80.1097 95.6674C80.4897 97.5974 79.2297 99.4774 77.2997 99.8574C77.0697 99.9174 76.8297 99.9374 76.5997 99.9374Z" fill="#08B780"/>
<g opacity="0.5">
<path opacity="0.5" d="M76.5997 99.9374C75.8997 99.9374 75.2097 99.7274 74.6197 99.3274C73.8297 98.8074 73.2897 97.9874 73.1097 97.0574C72.8297 95.6674 73.4097 94.2474 74.5697 93.4374C74.7097 93.3474 74.9097 93.3774 75.0097 93.5174C75.1097 93.6574 75.0797 93.8474 74.9397 93.9474C73.6097 94.8674 73.2897 96.6974 74.2097 98.0274C75.1297 99.3574 76.9597 99.6774 78.2897 98.7574C79.6197 97.8374 79.9397 96.0074 79.0197 94.6774C78.3597 93.7274 77.1897 93.2574 76.0497 93.4774C75.8797 93.5174 75.7197 93.4074 75.6797 93.2374C75.6397 93.0674 75.7497 92.8974 75.9197 92.8574C77.8497 92.4774 79.7297 93.7374 80.1097 95.6674C80.4897 97.5974 79.2297 99.4774 77.2997 99.8574C77.0697 99.9174 76.8297 99.9374 76.5997 99.9374Z" fill="white"/>
</g>
<path d="M63.9799 78.5676C70.9899 77.0176 74.0799 80.2476 76.1799 87.3676C78.8099 96.2476 78.2299 103.088 69.0499 103.108C56.5899 103.108 52.3499 81.1376 63.9799 78.5676Z" fill="#EEC1BB"/>
<path d="M71.5698 87.9675C72.3598 88.8875 73.2598 89.7075 74.2498 90.4175C73.9598 91.1075 73.3098 91.5675 72.5698 91.6175L71.5698 87.9675Z" fill="#D4827D"/>
<path d="M67.15 88.3475C67.29 88.9175 67.1 89.4675 66.71 89.5575C66.32 89.6475 65.91 89.2675 65.77 88.7175C65.63 88.1675 65.82 87.6075 66.21 87.5075C66.6 87.4075 67.01 87.7775 67.15 88.3475Z" fill="#263238"/>
<path d="M66.0601 87.5576L67.1801 86.7676C67.1801 86.7576 66.8201 87.9676 66.0601 87.5576Z" fill="#263238"/>
<path d="M74.2397 86.4875C74.3797 87.0575 74.1897 87.5975 73.7997 87.6975C73.4097 87.7975 72.9597 87.4075 72.8597 86.8575C72.7597 86.3075 72.9197 85.7375 73.2997 85.6475C73.6697 85.5475 74.0997 85.9075 74.2397 86.4875Z" fill="#263238"/>
<path d="M73.1396 85.6875L74.2597 84.8975C74.2597 84.8975 73.9396 86.0875 73.1396 85.6875Z" fill="#263238"/>
<path d="M66.0197 83.5376C64.8797 83.6376 63.8397 84.2576 63.2197 85.2176" stroke="#263238" stroke-width="0.6097" stroke-linecap="round" stroke-linejoin="round"/>
<path d="M71.04 82.1175C71.95 81.6675 73.02 81.6475 73.94 82.0775" stroke="#263238" stroke-width="0.6097" stroke-linecap="round" stroke-linejoin="round"/>
<path d="M58.9398 92.0575C58.9398 92.0575 60.9398 85.5775 59.4598 81.2475C59.4598 81.2475 72.0798 72.5075 75.8798 86.4375C75.8798 86.4375 74.4798 73.6375 62.3698 76.0175C50.2598 78.3975 54.2298 95.9975 61.5998 99.8675C61.6098 99.8775 57.7098 96.1075 58.9398 92.0575Z" fill="#263238"/>
<path d="M60.41 93.2876C59.9 91.6276 58.14 90.6976 56.48 91.2076C54.37 91.9276 54.32 96.6076 59.95 96.4776C60.77 96.4676 61.04 95.6176 60.41 93.2876Z" fill="#EEC1BB"/>
<path d="M73.8297 94.2876C73.6397 95.1476 73.5197 96.0176 73.4697 96.8976H73.0097C70.9197 97.0776 69.8897 96.4576 69.3797 95.7376C69.1397 95.3776 68.9897 94.9676 68.9397 94.5376C68.8997 94.2976 68.8997 94.0476 68.9397 93.8076C70.2897 94.2776 71.7197 94.4376 73.1497 94.3076C73.5597 94.3276 73.8297 94.2876 73.8297 94.2876Z" fill="#263238"/>
<path d="M73.0996 94.3376L72.9696 95.1076C70.9996 95.2676 69.5996 95.1076 68.9196 94.5776C68.8796 94.3376 68.8796 94.0877 68.9196 93.8477C70.2696 94.3077 71.6896 94.4776 73.0996 94.3376Z" fill="white"/>
<path d="M73.0099 96.9376C70.9199 97.1176 69.8899 96.4976 69.3799 95.7776C70.1699 95.7276 70.9699 95.8176 71.7399 96.0376C72.2499 96.1976 72.6899 96.5176 73.0099 96.9376Z" fill="#DE5753"/>
<path d="M63.96 79.1276C63.96 79.1276 63.69 91.2676 56.39 92.7276C49.09 94.1876 57.06 77.1176 57.06 77.1176C57.06 77.1176 67.91 70.0376 75.15 75.0276C82.39 80.0276 75.87 86.4376 75.87 86.4376C75.87 86.4376 74.36 77.4276 63.96 79.1276Z" fill="#263238"/>
<path d="M63.6997 78.3276C63.6997 78.3276 66.2997 86.0077 61.1797 90.0377" stroke="#263238" stroke-width="0.4207" stroke-linecap="round" stroke-linejoin="round"/>
<path d="M58.98 102.738C57.28 102.728 55.82 101.528 55.49 99.8677C55.22 98.4777 55.79 97.0577 56.95 96.2477C57.11 96.1677 57.3 96.2277 57.38 96.3777C57.45 96.5077 57.42 96.6676 57.31 96.7676C55.98 97.6976 55.66 99.5177 56.59 100.848C57.52 102.178 59.34 102.498 60.67 101.568C62 100.638 62.32 98.8177 61.39 97.4877C60.72 96.5377 59.56 96.0676 58.42 96.2976C58.25 96.3576 58.07 96.2677 58.02 96.0977C57.97 95.9277 58.05 95.7476 58.22 95.6976C58.25 95.6876 58.28 95.6877 58.3 95.6777C60.21 95.2077 62.15 96.3677 62.62 98.2877C63.09 100.198 61.93 102.138 60.01 102.608C59.9 102.638 59.79 102.658 59.68 102.678C59.45 102.718 59.22 102.738 58.98 102.738Z" fill="#08B780"/>
<g opacity="0.5">
<path opacity="0.5" d="M58.98 102.738C57.28 102.728 55.82 101.528 55.49 99.8677C55.22 98.4777 55.79 97.0577 56.95 96.2477C57.11 96.1677 57.3 96.2277 57.38 96.3777C57.45 96.5077 57.42 96.6676 57.31 96.7676C55.98 97.6976 55.66 99.5177 56.59 100.848C57.52 102.178 59.34 102.498 60.67 101.568C62 100.638 62.32 98.8177 61.39 97.4877C60.72 96.5377 59.56 96.0676 58.42 96.2976C58.25 96.3576 58.07 96.2677 58.02 96.0977C57.97 95.9277 58.05 95.7476 58.22 95.6976C58.25 95.6876 58.28 95.6877 58.3 95.6777C60.21 95.2077 62.15 96.3677 62.62 98.2877C63.09 100.198 61.93 102.138 60.01 102.608C59.9 102.638 59.79 102.658 59.68 102.678C59.45 102.718 59.22 102.738 58.98 102.738Z" fill="white"/>
</g>
<path d="M69.42 108.568C71.86 108.158 76.87 106.788 79.31 108.568C81.75 110.348 79.4 116.668 70.9 118.558C62.39 120.438 48.96 115.118 48.96 115.118C50.32 113.148 52.32 111.698 54.62 111.018C58.34 110.018 65.25 109.288 69.42 108.568Z" fill="#EEC1BB"/>
<path d="M74.2897 127.588C74.2397 127.588 74.1897 127.568 74.1497 127.528C73.6097 127.048 60.9097 115.748 60.9197 110.948C60.8997 110.388 61.1197 109.838 61.5397 109.468C61.6197 109.388 61.7397 109.378 61.8297 109.458L61.8397 109.468C61.9197 109.548 61.9197 109.678 61.8397 109.758C61.5097 110.048 61.3397 110.478 61.3597 110.918C61.3597 115.188 72.5697 125.478 74.2397 127.008C75.0097 125.368 79.0497 116.198 76.9297 111.108C76.3497 109.668 75.1497 108.558 73.6697 108.098C73.5597 108.058 73.4997 107.938 73.5397 107.828C73.5797 107.718 73.6897 107.658 73.7997 107.688C75.3997 108.188 76.6897 109.388 77.3197 110.948C79.7197 116.698 74.7197 127.008 74.4997 127.448C74.4697 127.508 74.4197 127.548 74.3597 127.558L74.2897 127.588Z" fill="#08B780"/>
<g opacity="0.5">
<path opacity="0.5" d="M74.2897 127.588C74.2397 127.588 74.1897 127.568 74.1497 127.528C73.6097 127.048 60.9097 115.748 60.9197 110.948C60.8997 110.388 61.1197 109.838 61.5397 109.468C61.6197 109.388 61.7397 109.378 61.8297 109.458L61.8397 109.468C61.9197 109.548 61.9197 109.678 61.8397 109.758C61.5097 110.048 61.3397 110.478 61.3597 110.918C61.3597 115.188 72.5697 125.478 74.2397 127.008C75.0097 125.368 79.0497 116.198 76.9297 111.108C76.3497 109.668 75.1497 108.558 73.6697 108.098C73.5597 108.058 73.4997 107.938 73.5397 107.828C73.5797 107.718 73.6897 107.658 73.7997 107.688C75.3997 108.188 76.6897 109.388 77.3197 110.948C79.7197 116.698 74.7197 127.008 74.4997 127.448C74.4697 127.508 74.4197 127.548 74.3597 127.558L74.2897 127.588Z" fill="white"/>
</g>
<path d="M73.3896 126.918L74.9097 126.758L75.5897 130.998L74.9097 132.608L73.7197 131.708L73.3896 126.918Z" fill="#08B780"/>
<path d="M31.4597 123.018C31.4597 123.018 28.9397 125.108 26.7997 124.048C24.6597 122.988 21.4697 118.938 21.7497 117.858C22.0397 116.768 24.6597 113.378 25.2397 113.648C25.8197 113.928 30.3797 119.278 31.4497 120.138C32.5197 120.998 31.4597 123.018 31.4597 123.018Z" fill="#EEC1BB"/>
<path d="M32.0999 121.478H31.9899L27.0299 120.208C26.5599 120.078 26.1799 119.748 25.9999 119.298L21.2299 108.308V108.238C21.1799 108.018 21.3199 107.808 21.5399 107.758C21.5899 107.748 21.6299 107.748 21.6799 107.748L26.2999 108.358C26.8499 108.428 27.3199 108.778 27.5399 109.288L32.5199 120.898C32.6099 121.098 32.5199 121.338 32.3099 121.428C32.2299 121.468 32.1599 121.478 32.0999 121.478Z" fill="#263238"/>
<path opacity="0.2" d="M32.1 121.478H31.99L27.03 120.208C26.56 120.078 26.18 119.748 26 119.298L21.23 108.308V108.238H21.29L25.91 108.848C26.46 108.918 26.93 109.278 27.15 109.788L32.13 121.398C32.11 121.428 32.1 121.448 32.1 121.478Z" fill="white"/>
</svg>
